<?xml version="1.0" encoding="UTF-8"?>
<!DOCTYPE xmeml>
<xmeml version="4">

  <project>
    <name>Sync_camera_3_is_shit</name>
    <children>
      <bin>
        <name>Camera 1</name>
        <children>
          <clip explodedTracks="TRUE" id="AF439898-31C3-4EDC-A7BB-08C5F6999BF5">
            <name>Cam_1_Take_1_Day_1_Cave_Art_VRSE_Cam_GOPR0002.MP4</name>
            <duration>18332</duration>
            <rate>
              <ntsc>TRUE</ntsc>
              <timebase>60</timebase>
            </rate>
            <masterclipid>AF439898-31C3-4EDC-A7BB-08C5F6999BF5</masterclipid>
            <ismasterclip>TRUE</ismasterclip>
            <media>
              <video>
                <track>
                  <clipitem id="66B3D548-A43B-4CB3-A7DB-B6399950103D">
                    <masterclipid>AF439898-31C3-4EDC-A7BB-08C5F6999BF5</masterclipid>
                    <file id="019F398B-5182-42B5-97BC-57472E69DE38">
                      <name>Cam_1_Take_1_Day_1_Cave_Art_VRSE_Cam_GOPR0002.MP4</name>
                      <rate>
                        <ntsc>TRUE</ntsc>
                        <timebase>60</timebase>
                      </rate>
                      <duration>18332</duration>
                      <media>
                        <video>
                          <samplecharacteristics>
                            <width>2704</width>
                            <height>1520</height>
                            <anamorphic>FALSE</anamorphic>
                            <pixelaspectratio>square</pixelaspectratio>
                          </samplecharacteristics>
                          <duration>18332</duration>
                        </video>
                        <audio>
                          <channelcount>2</channelcount>
                          <samplecharacteristics>
                            <samplerate>48000</samplerate>
                          </samplecharacteristics>
                          <layout>stereo</layout>
                          <audiochannel>
                            <sourcechannel>1</sourcechannel>
                          </audiochannel>
                        </audio>
                      </media>
                      <timecode>
                        <frame>3194335</frame>
                        <displayformat>DF</displayformat>
                      </timecode>
                      <pathurl>file:///Volumes/TA_VR_M2/Northern_Territory/Katherine/Day%201%20VRSE%20Cave%20Art/Take%201/Cam_1_Take_1_Day_1_Cave_Art_VRSE_Cam_GOPR0002.MP4</pathurl>
                    </file>
                    <link>
                      <mediatype>video</mediatype>
                      <trackindex>1</trackindex>
                      <clipindex>1</clipindex>
                      <groupindex>1</groupindex>
                      <linkclipref>66B3D548-A43B-4CB3-A7DB-B6399950103D</linkclipref>
                    </link>
                    <link>
                      <mediatype>audio</mediatype>
                      <trackindex>1</trackindex>
                      <clipindex>1</clipindex>
                      <groupindex>1</groupindex>
                      <linkclipref>B142CD65-B6B2-47CE-AA4D-B8951E4BDDA6</linkclipref>
                    </link>
                    <link>
                      <mediatype>audio</mediatype>
                      <trackindex>2</trackindex>
                      <clipindex>1</clipindex>
                      <groupindex>1</groupindex>
                      <linkclipref>949B0072-40CC-4937-939F-1C42CDE67D19</linkclipref>
                    </link>
                  </clipitem>
                  <enabled>TRUE</enabled>
                  <locked>FALSE</locked>
                </track>
              </video>
              <audio>
                <track>
                  <clipitem id="B142CD65-B6B2-47CE-AA4D-B8951E4BDDA6">
                    <masterclipid>AF439898-31C3-4EDC-A7BB-08C5F6999BF5</masterclipid>
                    <file id="019F398B-5182-42B5-97BC-57472E69DE38">
                      <name>Cam_1_Take_1_Day_1_Cave_Art_VRSE_Cam_GOPR0002.MP4</name>
                      <rate>
                        <ntsc>TRUE</ntsc>
                        <timebase>60</timebase>
                      </rate>
                      <duration>18332</duration>
                      <media>
                        <video>
                          <samplecharacteristics>
                            <width>2704</width>
                            <height>1520</height>
                            <anamorphic>FALSE</anamorphic>
                            <pixelaspectratio>square</pixelaspectratio>
                          </samplecharacteristics>
                          <duration>18332</duration>
                        </video>
                        <audio>
                          <channelcount>2</channelcount>
                          <samplecharacteristics>
                            <samplerate>48000</samplerate>
                          </samplecharacteristics>
                          <layout>stereo</layout>
                          <audiochannel>
                            <sourcechannel>1</sourcechannel>
                          </audiochannel>
                        </audio>
                      </media>
                      <timecode>
                        <frame>3194335</frame>
                        <displayformat>DF</displayformat>
                      </timecode>
                      <pathurl>file:///Volumes/TA_VR_M2/Northern_Territory/Katherine/Day%201%20VRSE%20Cave%20Art/Take%201/Cam_1_Take_1_Day_1_Cave_Art_VRSE_Cam_GOPR0002.MP4</pathurl>
                    </file>
                    <link>
                      <mediatype>video</mediatype>
                      <trackindex>1</trackindex>
                      <clipindex>1</clipindex>
                      <groupindex>1</groupindex>
                      <linkclipref>66B3D548-A43B-4CB3-A7DB-B6399950103D</linkclipref>
                    </link>
                    <link>
                      <mediatype>audio</mediatype>
                      <trackindex>1</trackindex>
                      <clipindex>1</clipindex>
                      <groupindex>1</groupindex>
                      <linkclipref>B142CD65-B6B2-47CE-AA4D-B8951E4BDDA6</linkclipref>
                    </link>
                    <link>
                      <mediatype>audio</mediatype>
                      <trackindex>2</trackindex>
                      <clipindex>1</clipindex>
                      <groupindex>1</groupindex>
                      <linkclipref>949B0072-40CC-4937-939F-1C42CDE67D19</linkclipref>
                    </link>
                  </clipitem>
                  <enabled>TRUE</enabled>
                  <locked>FALSE</locked>
                </track>
                <track>
                  <clipitem id="949B0072-40CC-4937-939F-1C42CDE67D19">
                    <masterclipid>AF439898-31C3-4EDC-A7BB-08C5F6999BF5</masterclipid>
                    <file id="019F398B-5182-42B5-97BC-57472E69DE38">
                      <name>Cam_1_Take_1_Day_1_Cave_Art_VRSE_Cam_GOPR0002.MP4</name>
                      <rate>
                        <ntsc>TRUE</ntsc>
                        <timebase>60</timebase>
                      </rate>
                      <duration>18332</duration>
                      <media>
                        <video>
                          <samplecharacteristics>
                            <width>2704</width>
                            <height>1520</height>
                            <anamorphic>FALSE</anamorphic>
                            <pixelaspectratio>square</pixelaspectratio>
                          </samplecharacteristics>
                          <duration>18332</duration>
                        </video>
                        <audio>
                          <channelcount>2</channelcount>
                          <samplecharacteristics>
                            <samplerate>48000</samplerate>
                          </samplecharacteristics>
                          <layout>stereo</layout>
                          <audiochannel>
                            <sourcechannel>1</sourcechannel>
                          </audiochannel>
                        </audio>
                      </media>
                      <timecode>
                        <frame>3194335</frame>
                        <displayformat>DF</displayformat>
                      </timecode>
                      <pathurl>file:///Volumes/TA_VR_M2/Northern_Territory/Katherine/Day%201%20VRSE%20Cave%20Art/Take%201/Cam_1_Take_1_Day_1_Cave_Art_VRSE_Cam_GOPR0002.MP4</pathurl>
                    </file>
                    <link>
                      <mediatype>video</mediatype>
                      <trackindex>1</trackindex>
                      <clipindex>1</clipindex>
                      <groupindex>1</groupindex>
                      <linkclipref>66B3D548-A43B-4CB3-A7DB-B6399950103D</linkclipref>
                    </link>
                    <link>
                      <mediatype>audio</mediatype>
                      <trackindex>1</trackindex>
                      <clipindex>1</clipindex>
                      <groupindex>1</groupindex>
                      <linkclipref>B142CD65-B6B2-47CE-AA4D-B8951E4BDDA6</linkclipref>
                    </link>
                    <link>
                      <mediatype>audio</mediatype>
                      <trackindex>2</trackindex>
                      <clipindex>1</clipindex>
                      <groupindex>1</groupindex>
                      <linkclipref>949B0072-40CC-4937-939F-1C42CDE67D19</linkclipref>
                    </link>
                  </clipitem>
                  <enabled>TRUE</enabled>
                  <locked>FALSE</locked>
                </track>
              </audio>
            </media>
          </clip>
        </children>
      </bin>
      <bin>
        <name>Camera 2</name>
        <children>
          <clip explodedTracks="TRUE" id="1D6BC4FC-F5DA-4B33-B5CD-DF48FAE56289">
            <name>Cam_2_Take_1_Day_1_Cave_Art_VRSE_Cam_GOPR9289.MP4</name>
            <duration>18417</duration>
            <rate>
              <ntsc>TRUE</ntsc>
              <timebase>60</timebase>
            </rate>
            <masterclipid>1D6BC4FC-F5DA-4B33-B5CD-DF48FAE56289</masterclipid>
            <ismasterclip>TRUE</ismasterclip>
            <media>
              <video>
                <track>
                  <clipitem id="51EEDDD0-D365-4291-9EBD-B4B95CE256B7">
                    <masterclipid>1D6BC4FC-F5DA-4B33-B5CD-DF48FAE56289</masterclipid>
                    <file id="46BFCB37-F142-4622-944B-5E433F42B56E">
                      <name>Cam_2_Take_1_Day_1_Cave_Art_VRSE_Cam_GOPR9289.MP4</name>
                      <rate>
                        <ntsc>TRUE</ntsc>
                        <timebase>60</timebase>
                      </rate>
                      <duration>18417</duration>
                      <media>
                        <video>
                          <samplecharacteristics>
                            <width>2704</width>
                            <height>1520</height>
                            <anamorphic>FALSE</anamorphic>
                            <pixelaspectratio>square</pixelaspectratio>
                          </samplecharacteristics>
                          <duration>18417</duration>
                        </video>
                        <audio>
                          <channelcount>2</channelcount>
                          <samplecharacteristics>
                            <samplerate>48000</samplerate>
                          </samplecharacteristics>
                          <layout>stereo</layout>
                          <audiochannel>
                            <sourcechannel>1</sourcechannel>
                          </audiochannel>
                        </audio>
                      </media>
                      <timecode>
                        <frame>3707169</frame>
                        <displayformat>DF</displayformat>
                      </timecode>
                      <pathurl>file:///Volumes/TA_VR_M2/Northern_Territory/Katherine/Day%201%20VRSE%20Cave%20Art/Take%201/Cam_2_Take_1_Day_1_Cave_Art_VRSE_Cam_GOPR9289.MP4</pathurl>
                    </file>
                    <link>
                      <mediatype>video</mediatype>
                      <trackindex>1</trackindex>
                      <clipindex>1</clipindex>
                      <groupindex>1</groupindex>
                      <linkclipref>51EEDDD0-D365-4291-9EBD-B4B95CE256B7</linkclipref>
                    </link>
                    <link>
                      <mediatype>audio</mediatype>
                      <trackindex>1</trackindex>
                      <clipindex>1</clipindex>
                      <groupindex>1</groupindex>
                      <linkclipref>98466350-0881-476B-AD61-A80D9B299B60</linkclipref>
                    </link>
                    <link>
                      <mediatype>audio</mediatype>
                      <trackindex>2</trackindex>
                      <clipindex>1</clipindex>
                      <groupindex>1</groupindex>
                      <linkclipref>FDF3ACEA-DF9F-4BE8-9115-5023D2CD3789</linkclipref>
                    </link>
                  </clipitem>
                  <enabled>TRUE</enabled>
                  <locked>FALSE</locked>
                </track>
              </video>
              <audio>
                <track>
                  <clipitem id="98466350-0881-476B-AD61-A80D9B299B60">
                    <masterclipid>1D6BC4FC-F5DA-4B33-B5CD-DF48FAE56289</masterclipid>
                    <file id="46BFCB37-F142-4622-944B-5E433F42B56E">
                      <name>Cam_2_Take_1_Day_1_Cave_Art_VRSE_Cam_GOPR9289.MP4</name>
                      <rate>
                        <ntsc>TRUE</ntsc>
                        <timebase>60</timebase>
                      </rate>
                      <duration>18417</duration>
                      <media>
                        <video>
                          <samplecharacteristics>
                            <width>2704</width>
                            <height>1520</height>
                            <anamorphic>FALSE</anamorphic>
                            <pixelaspectratio>square</pixelaspectratio>
                          </samplecharacteristics>
                          <duration>18417</duration>
                        </video>
                        <audio>
                          <channelcount>2</channelcount>
                          <samplecharacteristics>
                            <samplerate>48000</samplerate>
                          </samplecharacteristics>
                          <layout>stereo</layout>
                          <audiochannel>
                            <sourcechannel>1</sourcechannel>
                          </audiochannel>
                        </audio>
                      </media>
                      <timecode>
                        <frame>3707169</frame>
                        <displayformat>DF</displayformat>
                      </timecode>
                      <pathurl>file:///Volumes/TA_VR_M2/Northern_Territory/Katherine/Day%201%20VRSE%20Cave%20Art/Take%201/Cam_2_Take_1_Day_1_Cave_Art_VRSE_Cam_GOPR9289.MP4</pathurl>
                    </file>
                    <link>
                      <mediatype>video</mediatype>
                      <trackindex>1</trackindex>
                      <clipindex>1</clipindex>
                      <groupindex>1</groupindex>
                      <linkclipref>51EEDDD0-D365-4291-9EBD-B4B95CE256B7</linkclipref>
                    </link>
                    <link>
                      <mediatype>audio</mediatype>
                      <trackindex>1</trackindex>
                      <clipindex>1</clipindex>
                      <groupindex>1</groupindex>
                      <linkclipref>98466350-0881-476B-AD61-A80D9B299B60</linkclipref>
                    </link>
                    <link>
                      <mediatype>audio</mediatype>
                      <trackindex>2</trackindex>
                      <clipindex>1</clipindex>
                      <groupindex>1</groupindex>
                      <linkclipref>FDF3ACEA-DF9F-4BE8-9115-5023D2CD3789</linkclipref>
                    </link>
                  </clipitem>
                  <enabled>TRUE</enabled>
                  <locked>FALSE</locked>
                </track>
                <track>
                  <clipitem id="FDF3ACEA-DF9F-4BE8-9115-5023D2CD3789">
                    <masterclipid>1D6BC4FC-F5DA-4B33-B5CD-DF48FAE56289</masterclipid>
                    <file id="46BFCB37-F142-4622-944B-5E433F42B56E">
                      <name>Cam_2_Take_1_Day_1_Cave_Art_VRSE_Cam_GOPR9289.MP4</name>
                      <rate>
                        <ntsc>TRUE</ntsc>
                        <timebase>60</timebase>
                      </rate>
                      <duration>18417</duration>
                      <media>
                        <video>
                          <samplecharacteristics>
                            <width>2704</width>
                            <height>1520</height>
                            <anamorphic>FALSE</anamorphic>
                            <pixelaspectratio>square</pixelaspectratio>
                          </samplecharacteristics>
                          <duration>18417</duration>
                        </video>
                        <audio>
                          <channelcount>2</channelcount>
                          <samplecharacteristics>
                            <samplerate>48000</samplerate>
                          </samplecharacteristics>
                          <layout>stereo</layout>
                          <audiochannel>
                            <sourcechannel>1</sourcechannel>
                          </audiochannel>
                        </audio>
                      </media>
                      <timecode>
                        <frame>3707169</frame>
                        <displayformat>DF</displayformat>
                      </timecode>
                      <pathurl>file:///Volumes/TA_VR_M2/Northern_Territory/Katherine/Day%201%20VRSE%20Cave%20Art/Take%201/Cam_2_Take_1_Day_1_Cave_Art_VRSE_Cam_GOPR9289.MP4</pathurl>
                    </file>
                    <link>
                      <mediatype>video</mediatype>
                      <trackindex>1</trackindex>
                      <clipindex>1</clipindex>
                      <groupindex>1</groupindex>
                      <linkclipref>51EEDDD0-D365-4291-9EBD-B4B95CE256B7</linkclipref>
                    </link>
                    <link>
                      <mediatype>audio</mediatype>
                      <trackindex>1</trackindex>
                      <clipindex>1</clipindex>
                      <groupindex>1</groupindex>
                      <linkclipref>98466350-0881-476B-AD61-A80D9B299B60</linkclipref>
                    </link>
                    <link>
                      <mediatype>audio</mediatype>
                      <trackindex>2</trackindex>
                      <clipindex>1</clipindex>
                      <groupindex>1</groupindex>
                      <linkclipref>FDF3ACEA-DF9F-4BE8-9115-5023D2CD3789</linkclipref>
                    </link>
                  </clipitem>
                  <enabled>TRUE</enabled>
                  <locked>FALSE</locked>
                </track>
              </audio>
            </media>
          </clip>
        </children>
      </bin>
      <bin>
        <name>Camera 4</name>
        <children>
          <clip explodedTracks="TRUE" id="2F4E284F-75F8-43F4-995A-3EAA1B14E16A">
            <name>Cam_4_Take_1_Day_1_Cave_Art_VRSE_Cam_GOPR0115.MP4</name>
            <duration>19030</duration>
            <rate>
              <ntsc>TRUE</ntsc>
              <timebase>60</timebase>
            </rate>
            <masterclipid>2F4E284F-75F8-43F4-995A-3EAA1B14E16A</masterclipid>
            <ismasterclip>TRUE</ismasterclip>
            <media>
              <video>
                <track>
                  <clipitem id="C55E2152-408E-47FD-B30B-EAA92B8F8488">
                    <masterclipid>2F4E284F-75F8-43F4-995A-3EAA1B14E16A</masterclipid>
                    <file id="CD2CB6DF-030C-401E-90E6-58940DB6CC52">
                      <name>Cam_4_Take_1_Day_1_Cave_Art_VRSE_Cam_GOPR0115.MP4</name>
                      <rate>
                        <ntsc>TRUE</ntsc>
                        <timebase>60</timebase>
                      </rate>
                      <duration>19030</duration>
                      <media>
                        <video>
                          <samplecharacteristics>
                            <width>2704</width>
                            <height>1520</height>
                            <anamorphic>FALSE</anamorphic>
                            <pixelaspectratio>square</pixelaspectratio>
                          </samplecharacteristics>
                          <duration>19030</duration>
                        </video>
                        <audio>
                          <channelcount>2</channelcount>
                          <samplecharacteristics>
                            <samplerate>48000</samplerate>
                          </samplecharacteristics>
                          <layout>stereo</layout>
                          <audiochannel>
                            <sourcechannel>1</sourcechannel>
                          </audiochannel>
                        </audio>
                      </media>
                      <timecode>
                        <frame>1661778</frame>
                        <displayformat>DF</displayformat>
                      </timecode>
                      <pathurl>file:///Volumes/TA_VR_M2/Northern_Territory/Katherine/Day%201%20VRSE%20Cave%20Art/Take%201/Cam_4_Take_1_Day_1_Cave_Art_VRSE_Cam_GOPR0115.MP4</pathurl>
                    </file>
                    <link>
                      <mediatype>video</mediatype>
                      <trackindex>1</trackindex>
                      <clipindex>1</clipindex>
                      <groupindex>1</groupindex>
                      <linkclipref>C55E2152-408E-47FD-B30B-EAA92B8F8488</linkclipref>
                    </link>
                    <link>
                      <mediatype>audio</mediatype>
                      <trackindex>1</trackindex>
                      <clipindex>1</clipindex>
                      <groupindex>1</groupindex>
                      <linkclipref>78D520EE-2DB5-4EF9-B3A0-F8185EFC0E36</linkclipref>
                    </link>
                    <link>
                      <mediatype>audio</mediatype>
                      <trackindex>2</trackindex>
                      <clipindex>1</clipindex>
                      <groupindex>1</groupindex>
                      <linkclipref>9EAB89F6-8350-4CE5-855E-0F54F489C0EF</linkclipref>
                    </link>
                  </clipitem>
                  <enabled>TRUE</enabled>
                  <locked>FALSE</locked>
                </track>
              </video>
              <audio>
                <track>
                  <clipitem id="78D520EE-2DB5-4EF9-B3A0-F8185EFC0E36">
                    <masterclipid>2F4E284F-75F8-43F4-995A-3EAA1B14E16A</masterclipid>
                    <file id="CD2CB6DF-030C-401E-90E6-58940DB6CC52">
                      <name>Cam_4_Take_1_Day_1_Cave_Art_VRSE_Cam_GOPR0115.MP4</name>
                      <rate>
                        <ntsc>TRUE</ntsc>
                        <timebase>60</timebase>
                      </rate>
                      <duration>19030</duration>
                      <media>
                        <video>
                          <samplecharacteristics>
                            <width>2704</width>
                            <height>1520</height>
                            <anamorphic>FALSE</anamorphic>
                            <pixelaspectratio>square</pixelaspectratio>
                          </samplecharacteristics>
                          <duration>19030</duration>
                        </video>
                        <audio>
                          <channelcount>2</channelcount>
                          <samplecharacteristics>
                            <samplerate>48000</samplerate>
                          </samplecharacteristics>
                          <layout>stereo</layout>
                          <audiochannel>
                            <sourcechannel>1</sourcechannel>
                          </audiochannel>
                        </audio>
                      </media>
                      <timecode>
                        <frame>1661778</frame>
                        <displayformat>DF</displayformat>
                      </timecode>
                      <pathurl>file:///Volumes/TA_VR_M2/Northern_Territory/Katherine/Day%201%20VRSE%20Cave%20Art/Take%201/Cam_4_Take_1_Day_1_Cave_Art_VRSE_Cam_GOPR0115.MP4</pathurl>
                    </file>
                    <link>
                      <mediatype>video</mediatype>
                      <trackindex>1</trackindex>
                      <clipindex>1</clipindex>
                      <groupindex>1</groupindex>
                      <linkclipref>C55E2152-408E-47FD-B30B-EAA92B8F8488</linkclipref>
                    </link>
                    <link>
                      <mediatype>audio</mediatype>
                      <trackindex>1</trackindex>
                      <clipindex>1</clipindex>
                      <groupindex>1</groupindex>
                      <linkclipref>78D520EE-2DB5-4EF9-B3A0-F8185EFC0E36</linkclipref>
                    </link>
                    <link>
                      <mediatype>audio</mediatype>
                      <trackindex>2</trackindex>
                      <clipindex>1</clipindex>
                      <groupindex>1</groupindex>
                      <linkclipref>9EAB89F6-8350-4CE5-855E-0F54F489C0EF</linkclipref>
                    </link>
                  </clipitem>
                  <enabled>TRUE</enabled>
                  <locked>FALSE</locked>
                </track>
                <track>
                  <clipitem id="9EAB89F6-8350-4CE5-855E-0F54F489C0EF">
                    <masterclipid>2F4E284F-75F8-43F4-995A-3EAA1B14E16A</masterclipid>
                    <file id="CD2CB6DF-030C-401E-90E6-58940DB6CC52">
                      <name>Cam_4_Take_1_Day_1_Cave_Art_VRSE_Cam_GOPR0115.MP4</name>
                      <rate>
                        <ntsc>TRUE</ntsc>
                        <timebase>60</timebase>
                      </rate>
                      <duration>19030</duration>
                      <media>
                        <video>
                          <samplecharacteristics>
                            <width>2704</width>
                            <height>1520</height>
                            <anamorphic>FALSE</anamorphic>
                            <pixelaspectratio>square</pixelaspectratio>
                          </samplecharacteristics>
                          <duration>19030</duration>
                        </video>
                        <audio>
                          <channelcount>2</channelcount>
                          <samplecharacteristics>
                            <samplerate>48000</samplerate>
                          </samplecharacteristics>
                          <layout>stereo</layout>
                          <audiochannel>
                            <sourcechannel>1</sourcechannel>
                          </audiochannel>
                        </audio>
                      </media>
                      <timecode>
                        <frame>1661778</frame>
                        <displayformat>DF</displayformat>
                      </timecode>
                      <pathurl>file:///Volumes/TA_VR_M2/Northern_Territory/Katherine/Day%201%20VRSE%20Cave%20Art/Take%201/Cam_4_Take_1_Day_1_Cave_Art_VRSE_Cam_GOPR0115.MP4</pathurl>
                    </file>
                    <link>
                      <mediatype>video</mediatype>
                      <trackindex>1</trackindex>
                      <clipindex>1</clipindex>
                      <groupindex>1</groupindex>
                      <linkclipref>C55E2152-408E-47FD-B30B-EAA92B8F8488</linkclipref>
                    </link>
                    <link>
                      <mediatype>audio</mediatype>
                      <trackindex>1</trackindex>
                      <clipindex>1</clipindex>
                      <groupindex>1</groupindex>
                      <linkclipref>78D520EE-2DB5-4EF9-B3A0-F8185EFC0E36</linkclipref>
                    </link>
                    <link>
                      <mediatype>audio</mediatype>
                      <trackindex>2</trackindex>
                      <clipindex>1</clipindex>
                      <groupindex>1</groupindex>
                      <linkclipref>9EAB89F6-8350-4CE5-855E-0F54F489C0EF</linkclipref>
                    </link>
                  </clipitem>
                  <enabled>TRUE</enabled>
                  <locked>FALSE</locked>
                </track>
              </audio>
            </media>
          </clip>
        </children>
      </bin>
      <bin>
        <name>Camera 5</name>
        <children>
          <clip explodedTracks="TRUE" id="2A040FFB-601B-4B98-A8D6-7DAE3E56CBC8">
            <name>Cam_5_Take_1_Day_1_Cave_Art_VRSE_Cam_GOPR9602.MP4</name>
            <duration>19130</duration>
            <rate>
              <ntsc>TRUE</ntsc>
              <timebase>60</timebase>
            </rate>
            <masterclipid>2A040FFB-601B-4B98-A8D6-7DAE3E56CBC8</masterclipid>
            <ismasterclip>TRUE</ismasterclip>
            <media>
              <video>
                <track>
                  <clipitem id="E2F8D42B-C844-48D1-8D61-FC048A214491">
                    <masterclipid>2A040FFB-601B-4B98-A8D6-7DAE3E56CBC8</masterclipid>
                    <file id="DF548BA4-3B93-4EFF-B81E-7C2E065C36F2">
                      <name>Cam_5_Take_1_Day_1_Cave_Art_VRSE_Cam_GOPR9602.MP4</name>
                      <rate>
                        <ntsc>TRUE</ntsc>
                        <timebase>60</timebase>
                      </rate>
                      <duration>19130</duration>
                      <media>
                        <video>
                          <samplecharacteristics>
                            <width>2704</width>
                            <height>1520</height>
                            <anamorphic>FALSE</anamorphic>
                            <pixelaspectratio>square</pixelaspectratio>
                          </samplecharacteristics>
                          <duration>19130</duration>
                        </video>
                        <audio>
                          <channelcount>2</channelcount>
                          <samplecharacteristics>
                            <samplerate>48000</samplerate>
                          </samplecharacteristics>
                          <layout>stereo</layout>
                          <audiochannel>
                            <sourcechannel>1</sourcechannel>
                          </audiochannel>
                        </audio>
                      </media>
                      <timecode>
                        <frame>4956369</frame>
                        <displayformat>DF</displayformat>
                      </timecode>
                      <pathurl>file:///Volumes/TA_VR_M2/Northern_Territory/Katherine/Day%201%20VRSE%20Cave%20Art/Take%201/Cam_5_Take_1_Day_1_Cave_Art_VRSE_Cam_GOPR9602.MP4</pathurl>
                    </file>
                    <link>
                      <mediatype>video</mediatype>
                      <trackindex>1</trackindex>
                      <clipindex>1</clipindex>
                      <groupindex>1</groupindex>
                      <linkclipref>E2F8D42B-C844-48D1-8D61-FC048A214491</linkclipref>
                    </link>
                    <link>
                      <mediatype>audio</mediatype>
                      <trackindex>1</trackindex>
                      <clipindex>1</clipindex>
                      <groupindex>1</groupindex>
                      <linkclipref>6F3965AF-F09B-41A9-BDEB-57E4760E1C67</linkclipref>
                    </link>
                    <link>
                      <mediatype>audio</mediatype>
                      <trackindex>2</trackindex>
                      <clipindex>1</clipindex>
                      <groupindex>1</groupindex>
                      <linkclipref>AFA0A3B3-23D1-4825-8230-223EA8CFD6FA</linkclipref>
                    </link>
                  </clipitem>
                  <enabled>TRUE</enabled>
                  <locked>FALSE</locked>
                </track>
              </video>
              <audio>
                <track>
                  <clipitem id="6F3965AF-F09B-41A9-BDEB-57E4760E1C67">
                    <masterclipid>2A040FFB-601B-4B98-A8D6-7DAE3E56CBC8</masterclipid>
                    <file id="DF548BA4-3B93-4EFF-B81E-7C2E065C36F2">
                      <name>Cam_5_Take_1_Day_1_Cave_Art_VRSE_Cam_GOPR9602.MP4</name>
                      <rate>
                        <ntsc>TRUE</ntsc>
                        <timebase>60</timebase>
                      </rate>
                      <duration>19130</duration>
                      <media>
                        <video>
                          <samplecharacteristics>
                            <width>2704</width>
                            <height>1520</height>
                            <anamorphic>FALSE</anamorphic>
                            <pixelaspectratio>square</pixelaspectratio>
                          </samplecharacteristics>
                          <duration>19130</duration>
                        </video>
                        <audio>
                          <channelcount>2</channelcount>
                          <samplecharacteristics>
                            <samplerate>48000</samplerate>
                          </samplecharacteristics>
                          <layout>stereo</layout>
                          <audiochannel>
                            <sourcechannel>1</sourcechannel>
                          </audiochannel>
                        </audio>
                      </media>
                      <timecode>
                        <frame>4956369</frame>
                        <displayformat>DF</displayformat>
                      </timecode>
                      <pathurl>file:///Volumes/TA_VR_M2/Northern_Territory/Katherine/Day%201%20VRSE%20Cave%20Art/Take%201/Cam_5_Take_1_Day_1_Cave_Art_VRSE_Cam_GOPR9602.MP4</pathurl>
                    </file>
                    <link>
                      <mediatype>video</mediatype>
                      <trackindex>1</trackindex>
                      <clipindex>1</clipindex>
                      <groupindex>1</groupindex>
                      <linkclipref>E2F8D42B-C844-48D1-8D61-FC048A214491</linkclipref>
                    </link>
                    <link>
                      <mediatype>audio</mediatype>
                      <trackindex>1</trackindex>
                      <clipindex>1</clipindex>
                      <groupindex>1</groupindex>
                      <linkclipref>6F3965AF-F09B-41A9-BDEB-57E4760E1C67</linkclipref>
                    </link>
                    <link>
                      <mediatype>audio</mediatype>
                      <trackindex>2</trackindex>
                      <clipindex>1</clipindex>
                      <groupindex>1</groupindex>
                      <linkclipref>AFA0A3B3-23D1-4825-8230-223EA8CFD6FA</linkclipref>
                    </link>
                  </clipitem>
                  <enabled>TRUE</enabled>
                  <locked>FALSE</locked>
                </track>
                <track>
                  <clipitem id="AFA0A3B3-23D1-4825-8230-223EA8CFD6FA">
                    <masterclipid>2A040FFB-601B-4B98-A8D6-7DAE3E56CBC8</masterclipid>
                    <file id="DF548BA4-3B93-4EFF-B81E-7C2E065C36F2">
                      <name>Cam_5_Take_1_Day_1_Cave_Art_VRSE_Cam_GOPR9602.MP4</name>
                      <rate>
                        <ntsc>TRUE</ntsc>
                        <timebase>60</timebase>
                      </rate>
                      <duration>19130</duration>
                      <media>
                        <video>
                          <samplecharacteristics>
                            <width>2704</width>
                            <height>1520</height>
                            <anamorphic>FALSE</anamorphic>
                            <pixelaspectratio>square</pixelaspectratio>
                          </samplecharacteristics>
                          <duration>19130</duration>
                        </video>
                        <audio>
                          <channelcount>2</channelcount>
                          <samplecharacteristics>
                            <samplerate>48000</samplerate>
                          </samplecharacteristics>
                          <layout>stereo</layout>
                          <audiochannel>
                            <sourcechannel>1</sourcechannel>
                          </audiochannel>
                        </audio>
                      </media>
                      <timecode>
                        <frame>4956369</frame>
                        <displayformat>DF</displayformat>
                      </timecode>
                      <pathurl>file:///Volumes/TA_VR_M2/Northern_Territory/Katherine/Day%201%20VRSE%20Cave%20Art/Take%201/Cam_5_Take_1_Day_1_Cave_Art_VRSE_Cam_GOPR9602.MP4</pathurl>
                    </file>
                    <link>
                      <mediatype>video</mediatype>
                      <trackindex>1</trackindex>
                      <clipindex>1</clipindex>
                      <groupindex>1</groupindex>
                      <linkclipref>E2F8D42B-C844-48D1-8D61-FC048A214491</linkclipref>
                    </link>
                    <link>
                      <mediatype>audio</mediatype>
                      <trackindex>1</trackindex>
                      <clipindex>1</clipindex>
                      <groupindex>1</groupindex>
                      <linkclipref>6F3965AF-F09B-41A9-BDEB-57E4760E1C67</linkclipref>
                    </link>
                    <link>
                      <mediatype>audio</mediatype>
                      <trackindex>2</trackindex>
                      <clipindex>1</clipindex>
                      <groupindex>1</groupindex>
                      <linkclipref>AFA0A3B3-23D1-4825-8230-223EA8CFD6FA</linkclipref>
                    </link>
                  </clipitem>
                  <enabled>TRUE</enabled>
                  <locked>FALSE</locked>
                </track>
              </audio>
            </media>
          </clip>
        </children>
      </bin>
      <bin>
        <name>Camera 6</name>
        <children>
          <clip explodedTracks="TRUE" id="EC71AE1F-CEEB-4BEE-9AB8-59CD903809CB">
            <name>Cam_6_Take_1_Day_1_Cave_Art_VRSE_Cam_GOPR9987.MP4</name>
            <duration>19163</duration>
            <rate>
              <ntsc>TRUE</ntsc>
              <timebase>60</timebase>
            </rate>
            <masterclipid>EC71AE1F-CEEB-4BEE-9AB8-59CD903809CB</masterclipid>
            <ismasterclip>TRUE</ismasterclip>
            <media>
              <video>
                <track>
                  <clipitem id="89D0BED2-D482-447E-9D85-CBA248B28624">
                    <masterclipid>EC71AE1F-CEEB-4BEE-9AB8-59CD903809CB</masterclipid>
                    <file id="E3866DEB-189E-43C4-8339-0EA16D1BE592">
                      <name>Cam_6_Take_1_Day_1_Cave_Art_VRSE_Cam_GOPR9987.MP4</name>
                      <rate>
                        <ntsc>TRUE</ntsc>
                        <timebase>60</timebase>
                      </rate>
                      <duration>19163</duration>
                      <media>
                        <video>
                          <samplecharacteristics>
                            <width>2704</width>
                            <height>1520</height>
                            <anamorphic>FALSE</anamorphic>
                            <pixelaspectratio>square</pixelaspectratio>
                          </samplecharacteristics>
                          <duration>19163</duration>
                        </video>
                        <audio>
                          <channelcount>2</channelcount>
                          <samplecharacteristics>
                            <samplerate>48000</samplerate>
                          </samplecharacteristics>
                          <layout>stereo</layout>
                          <audiochannel>
                            <sourcechannel>1</sourcechannel>
                          </audiochannel>
                        </audio>
                      </media>
                      <timecode>
                        <frame>2027534</frame>
                        <displayformat>DF</displayformat>
                      </timecode>
                      <pathurl>file:///Volumes/TA_VR_M2/Northern_Territory/Katherine/Day%201%20VRSE%20Cave%20Art/Take%201/Cam_6_Take_1_Day_1_Cave_Art_VRSE_Cam_GOPR9987.MP4</pathurl>
                    </file>
                    <link>
                      <mediatype>video</mediatype>
                      <trackindex>1</trackindex>
                      <clipindex>1</clipindex>
                      <groupindex>1</groupindex>
                      <linkclipref>89D0BED2-D482-447E-9D85-CBA248B28624</linkclipref>
                    </link>
                    <link>
                      <mediatype>audio</mediatype>
                      <trackindex>1</trackindex>
                      <clipindex>1</clipindex>
                      <groupindex>1</groupindex>
                      <linkclipref>5D740E35-2649-4145-901D-2ADFA554B731</linkclipref>
                    </link>
                    <link>
                      <mediatype>audio</mediatype>
                      <trackindex>2</trackindex>
                      <clipindex>1</clipindex>
                      <groupindex>1</groupindex>
                      <linkclipref>5EEE97D8-A200-49F9-9F44-E9F370E2EB9E</linkclipref>
                    </link>
                  </clipitem>
                  <enabled>TRUE</enabled>
                  <locked>FALSE</locked>
                </track>
              </video>
              <audio>
                <track>
                  <clipitem id="5D740E35-2649-4145-901D-2ADFA554B731">
                    <masterclipid>EC71AE1F-CEEB-4BEE-9AB8-59CD903809CB</masterclipid>
                    <file id="E3866DEB-189E-43C4-8339-0EA16D1BE592">
                      <name>Cam_6_Take_1_Day_1_Cave_Art_VRSE_Cam_GOPR9987.MP4</name>
                      <rate>
                        <ntsc>TRUE</ntsc>
                        <timebase>60</timebase>
                      </rate>
                      <duration>19163</duration>
                      <media>
                        <video>
                          <samplecharacteristics>
                            <width>2704</width>
                            <height>1520</height>
                            <anamorphic>FALSE</anamorphic>
                            <pixelaspectratio>square</pixelaspectratio>
                          </samplecharacteristics>
                          <duration>19163</duration>
                        </video>
                        <audio>
                          <channelcount>2</channelcount>
                          <samplecharacteristics>
                            <samplerate>48000</samplerate>
                          </samplecharacteristics>
                          <layout>stereo</layout>
                          <audiochannel>
                            <sourcechannel>1</sourcechannel>
                          </audiochannel>
                        </audio>
                      </media>
                      <timecode>
                        <frame>2027534</frame>
                        <displayformat>DF</displayformat>
                      </timecode>
                      <pathurl>file:///Volumes/TA_VR_M2/Northern_Territory/Katherine/Day%201%20VRSE%20Cave%20Art/Take%201/Cam_6_Take_1_Day_1_Cave_Art_VRSE_Cam_GOPR9987.MP4</pathurl>
                    </file>
                    <link>
                      <mediatype>video</mediatype>
                      <trackindex>1</trackindex>
                      <clipindex>1</clipindex>
                      <groupindex>1</groupindex>
                      <linkclipref>89D0BED2-D482-447E-9D85-CBA248B28624</linkclipref>
                    </link>
                    <link>
                      <mediatype>audio</mediatype>
                      <trackindex>1</trackindex>
                      <clipindex>1</clipindex>
                      <groupindex>1</groupindex>
                      <linkclipref>5D740E35-2649-4145-901D-2ADFA554B731</linkclipref>
                    </link>
                    <link>
                      <mediatype>audio</mediatype>
                      <trackindex>2</trackindex>
                      <clipindex>1</clipindex>
                      <groupindex>1</groupindex>
                      <linkclipref>5EEE97D8-A200-49F9-9F44-E9F370E2EB9E</linkclipref>
                    </link>
                  </clipitem>
                  <enabled>TRUE</enabled>
                  <locked>FALSE</locked>
                </track>
                <track>
                  <clipitem id="5EEE97D8-A200-49F9-9F44-E9F370E2EB9E">
                    <masterclipid>EC71AE1F-CEEB-4BEE-9AB8-59CD903809CB</masterclipid>
                    <file id="E3866DEB-189E-43C4-8339-0EA16D1BE592">
                      <name>Cam_6_Take_1_Day_1_Cave_Art_VRSE_Cam_GOPR9987.MP4</name>
                      <rate>
                        <ntsc>TRUE</ntsc>
                        <timebase>60</timebase>
                      </rate>
                      <duration>19163</duration>
                      <media>
                        <video>
                          <samplecharacteristics>
                            <width>2704</width>
                            <height>1520</height>
                            <anamorphic>FALSE</anamorphic>
                            <pixelaspectratio>square</pixelaspectratio>
                          </samplecharacteristics>
                          <duration>19163</duration>
                        </video>
                        <audio>
                          <channelcount>2</channelcount>
                          <samplecharacteristics>
                            <samplerate>48000</samplerate>
                          </samplecharacteristics>
                          <layout>stereo</layout>
                          <audiochannel>
                            <sourcechannel>1</sourcechannel>
                          </audiochannel>
                        </audio>
                      </media>
                      <timecode>
                        <frame>2027534</frame>
                        <displayformat>DF</displayformat>
                      </timecode>
                      <pathurl>file:///Volumes/TA_VR_M2/Northern_Territory/Katherine/Day%201%20VRSE%20Cave%20Art/Take%201/Cam_6_Take_1_Day_1_Cave_Art_VRSE_Cam_GOPR9987.MP4</pathurl>
                    </file>
                    <link>
                      <mediatype>video</mediatype>
                      <trackindex>1</trackindex>
                      <clipindex>1</clipindex>
                      <groupindex>1</groupindex>
                      <linkclipref>89D0BED2-D482-447E-9D85-CBA248B28624</linkclipref>
                    </link>
                    <link>
                      <mediatype>audio</mediatype>
                      <trackindex>1</trackindex>
                      <clipindex>1</clipindex>
                      <groupindex>1</groupindex>
                      <linkclipref>5D740E35-2649-4145-901D-2ADFA554B731</linkclipref>
                    </link>
                    <link>
                      <mediatype>audio</mediatype>
                      <trackindex>2</trackindex>
                      <clipindex>1</clipindex>
                      <groupindex>1</groupindex>
                      <linkclipref>5EEE97D8-A200-49F9-9F44-E9F370E2EB9E</linkclipref>
                    </link>
                  </clipitem>
                  <enabled>TRUE</enabled>
                  <locked>FALSE</locked>
                </track>
              </audio>
            </media>
          </clip>
        </children>
      </bin>
      <bin>
        <name>Camera 7</name>
        <children>
          <clip explodedTracks="TRUE" id="31481EA0-F81D-419A-ADFB-34638993D06B">
            <name>Cam_7_Take_1_Day_1_Cave_Art_VRSE_Cam_GOPR6371.MP4</name>
            <duration>19186</duration>
            <rate>
              <ntsc>TRUE</ntsc>
              <timebase>60</timebase>
            </rate>
            <masterclipid>31481EA0-F81D-419A-ADFB-34638993D06B</masterclipid>
            <ismasterclip>TRUE</ismasterclip>
            <media>
              <video>
                <track>
                  <clipitem id="3E7028BC-C9F7-4877-A1F4-B355F24662EA">
                    <masterclipid>31481EA0-F81D-419A-ADFB-34638993D06B</masterclipid>
                    <file id="5197FFFC-AAAA-415E-9F26-C99569058889">
                      <name>Cam_7_Take_1_Day_1_Cave_Art_VRSE_Cam_GOPR6371.MP4</name>
                      <rate>
                        <ntsc>TRUE</ntsc>
                        <timebase>60</timebase>
                      </rate>
                      <duration>19186</duration>
                      <media>
                        <video>
                          <samplecharacteristics>
                            <width>2704</width>
                            <height>1520</height>
                            <anamorphic>FALSE</anamorphic>
                            <pixelaspectratio>square</pixelaspectratio>
                          </samplecharacteristics>
                          <duration>19186</duration>
                        </video>
                        <audio>
                          <channelcount>2</channelcount>
                          <samplecharacteristics>
                            <samplerate>48000</samplerate>
                          </samplecharacteristics>
                          <layout>stereo</layout>
                          <audiochannel>
                            <sourcechannel>1</sourcechannel>
                          </audiochannel>
                        </audio>
                      </media>
                      <timecode>
                        <frame>3705250</frame>
                        <displayformat>DF</displayformat>
                      </timecode>
                      <pathurl>file:///Volumes/TA_VR_M2/Northern_Territory/Katherine/Day%201%20VRSE%20Cave%20Art/Take%201/Cam_7_Take_1_Day_1_Cave_Art_VRSE_Cam_GOPR6371.MP4</pathurl>
                    </file>
                    <link>
                      <mediatype>video</mediatype>
                      <trackindex>1</trackindex>
                      <clipindex>1</clipindex>
                      <groupindex>1</groupindex>
                      <linkclipref>3E7028BC-C9F7-4877-A1F4-B355F24662EA</linkclipref>
                    </link>
                    <link>
                      <mediatype>audio</mediatype>
                      <trackindex>1</trackindex>
                      <clipindex>1</clipindex>
                      <groupindex>1</groupindex>
                      <linkclipref>E8C12572-0047-471F-8C32-4AF1BD4A89A4</linkclipref>
                    </link>
                    <link>
                      <mediatype>audio</mediatype>
                      <trackindex>2</trackindex>
                      <clipindex>1</clipindex>
                      <groupindex>1</groupindex>
                      <linkclipref>4E58B30A-75F8-4E78-89F2-AB168CE16089</linkclipref>
                    </link>
                  </clipitem>
                  <enabled>TRUE</enabled>
                  <locked>FALSE</locked>
                </track>
              </video>
              <audio>
                <track>
                  <clipitem id="E8C12572-0047-471F-8C32-4AF1BD4A89A4">
                    <masterclipid>31481EA0-F81D-419A-ADFB-34638993D06B</masterclipid>
                    <file id="5197FFFC-AAAA-415E-9F26-C99569058889">
                      <name>Cam_7_Take_1_Day_1_Cave_Art_VRSE_Cam_GOPR6371.MP4</name>
                      <rate>
                        <ntsc>TRUE</ntsc>
                        <timebase>60</timebase>
                      </rate>
                      <duration>19186</duration>
                      <media>
                        <video>
                          <samplecharacteristics>
                            <width>2704</width>
                            <height>1520</height>
                            <anamorphic>FALSE</anamorphic>
                            <pixelaspectratio>square</pixelaspectratio>
                          </samplecharacteristics>
                          <duration>19186</duration>
                        </video>
                        <audio>
                          <channelcount>2</channelcount>
                          <samplecharacteristics>
                            <samplerate>48000</samplerate>
                          </samplecharacteristics>
                          <layout>stereo</layout>
                          <audiochannel>
                            <sourcechannel>1</sourcechannel>
                          </audiochannel>
                        </audio>
                      </media>
                      <timecode>
                        <frame>3705250</frame>
                        <displayformat>DF</displayformat>
                      </timecode>
                      <pathurl>file:///Volumes/TA_VR_M2/Northern_Territory/Katherine/Day%201%20VRSE%20Cave%20Art/Take%201/Cam_7_Take_1_Day_1_Cave_Art_VRSE_Cam_GOPR6371.MP4</pathurl>
                    </file>
                    <link>
                      <mediatype>video</mediatype>
                      <trackindex>1</trackindex>
                      <clipindex>1</clipindex>
                      <groupindex>1</groupindex>
                      <linkclipref>3E7028BC-C9F7-4877-A1F4-B355F24662EA</linkclipref>
                    </link>
                    <link>
                      <mediatype>audio</mediatype>
                      <trackindex>1</trackindex>
                      <clipindex>1</clipindex>
                      <groupindex>1</groupindex>
                      <linkclipref>E8C12572-0047-471F-8C32-4AF1BD4A89A4</linkclipref>
                    </link>
                    <link>
                      <mediatype>audio</mediatype>
                      <trackindex>2</trackindex>
                      <clipindex>1</clipindex>
                      <groupindex>1</groupindex>
                      <linkclipref>4E58B30A-75F8-4E78-89F2-AB168CE16089</linkclipref>
                    </link>
                  </clipitem>
                  <enabled>TRUE</enabled>
                  <locked>FALSE</locked>
                </track>
                <track>
                  <clipitem id="4E58B30A-75F8-4E78-89F2-AB168CE16089">
                    <masterclipid>31481EA0-F81D-419A-ADFB-34638993D06B</masterclipid>
                    <file id="5197FFFC-AAAA-415E-9F26-C99569058889">
                      <name>Cam_7_Take_1_Day_1_Cave_Art_VRSE_Cam_GOPR6371.MP4</name>
                      <rate>
                        <ntsc>TRUE</ntsc>
                        <timebase>60</timebase>
                      </rate>
                      <duration>19186</duration>
                      <media>
                        <video>
                          <samplecharacteristics>
                            <width>2704</width>
                            <height>1520</height>
                            <anamorphic>FALSE</anamorphic>
                            <pixelaspectratio>square</pixelaspectratio>
                          </samplecharacteristics>
                          <duration>19186</duration>
                        </video>
                        <audio>
                          <channelcount>2</channelcount>
                          <samplecharacteristics>
                            <samplerate>48000</samplerate>
                          </samplecharacteristics>
                          <layout>stereo</layout>
                          <audiochannel>
                            <sourcechannel>1</sourcechannel>
                          </audiochannel>
                        </audio>
                      </media>
                      <timecode>
                        <frame>3705250</frame>
                        <displayformat>DF</displayformat>
                      </timecode>
                      <pathurl>file:///Volumes/TA_VR_M2/Northern_Territory/Katherine/Day%201%20VRSE%20Cave%20Art/Take%201/Cam_7_Take_1_Day_1_Cave_Art_VRSE_Cam_GOPR6371.MP4</pathurl>
                    </file>
                    <link>
                      <mediatype>video</mediatype>
                      <trackindex>1</trackindex>
                      <clipindex>1</clipindex>
                      <groupindex>1</groupindex>
                      <linkclipref>3E7028BC-C9F7-4877-A1F4-B355F24662EA</linkclipref>
                    </link>
                    <link>
                      <mediatype>audio</mediatype>
                      <trackindex>1</trackindex>
                      <clipindex>1</clipindex>
                      <groupindex>1</groupindex>
                      <linkclipref>E8C12572-0047-471F-8C32-4AF1BD4A89A4</linkclipref>
                    </link>
                    <link>
                      <mediatype>audio</mediatype>
                      <trackindex>2</trackindex>
                      <clipindex>1</clipindex>
                      <groupindex>1</groupindex>
                      <linkclipref>4E58B30A-75F8-4E78-89F2-AB168CE16089</linkclipref>
                    </link>
                  </clipitem>
                  <enabled>TRUE</enabled>
                  <locked>FALSE</locked>
                </track>
              </audio>
            </media>
          </clip>
        </children>
      </bin>
      <bin>
        <name>Camera 8</name>
        <children>
          <clip explodedTracks="TRUE" id="A4703F2D-2A22-42C5-8F3B-4164DFBB7932">
            <name>Cam_8_Take_1_Day_1_Cave_Art_VRSE_Cam_GOPR9999.MP4</name>
            <duration>19478</duration>
            <rate>
              <ntsc>TRUE</ntsc>
              <timebase>60</timebase>
            </rate>
            <masterclipid>A4703F2D-2A22-42C5-8F3B-4164DFBB7932</masterclipid>
            <ismasterclip>TRUE</ismasterclip>
            <media>
              <video>
                <track>
                  <clipitem id="FE482436-3BDB-4EF8-8578-143CBFAA258C">
                    <masterclipid>A4703F2D-2A22-42C5-8F3B-4164DFBB7932</masterclipid>
                    <file id="E2BDC153-DF8B-416B-A8E2-A9A738227853">
                      <name>Cam_8_Take_1_Day_1_Cave_Art_VRSE_Cam_GOPR9999.MP4</name>
                      <rate>
                        <ntsc>TRUE</ntsc>
                        <timebase>60</timebase>
                      </rate>
                      <duration>19478</duration>
                      <media>
                        <video>
                          <samplecharacteristics>
                            <width>2704</width>
                            <height>1520</height>
                            <anamorphic>FALSE</anamorphic>
                            <pixelaspectratio>square</pixelaspectratio>
                          </samplecharacteristics>
                          <duration>19478</duration>
                        </video>
                        <audio>
                          <channelcount>2</channelcount>
                          <samplecharacteristics>
                            <samplerate>48000</samplerate>
                          </samplecharacteristics>
                          <layout>stereo</layout>
                          <audiochannel>
                            <sourcechannel>1</sourcechannel>
                          </audiochannel>
                        </audio>
                      </media>
                      <timecode>
                        <frame>2280849</frame>
                        <displayformat>DF</displayformat>
                      </timecode>
                      <pathurl>file:///Volumes/TA_VR_M2/Northern_Territory/Katherine/Day%201%20VRSE%20Cave%20Art/Take%201/Cam_8_Take_1_Day_1_Cave_Art_VRSE_Cam_GOPR9999.MP4</pathurl>
                    </file>
                    <link>
                      <mediatype>video</mediatype>
                      <trackindex>1</trackindex>
                      <clipindex>1</clipindex>
                      <groupindex>1</groupindex>
                      <linkclipref>FE482436-3BDB-4EF8-8578-143CBFAA258C</linkclipref>
                    </link>
                    <link>
                      <mediatype>audio</mediatype>
                      <trackindex>1</trackindex>
                      <clipindex>1</clipindex>
                      <groupindex>1</groupindex>
                      <linkclipref>67E2D542-9E73-4079-9C9B-D9F70C27B78D</linkclipref>
                    </link>
                    <link>
                      <mediatype>audio</mediatype>
                      <trackindex>2</trackindex>
                      <clipindex>1</clipindex>
                      <groupindex>1</groupindex>
                      <linkclipref>F7B71FFA-E7DD-48BF-B9BD-285871BA12F4</linkclipref>
                    </link>
                  </clipitem>
                  <enabled>TRUE</enabled>
                  <locked>FALSE</locked>
                </track>
              </video>
              <audio>
                <track>
                  <clipitem id="67E2D542-9E73-4079-9C9B-D9F70C27B78D">
                    <masterclipid>A4703F2D-2A22-42C5-8F3B-4164DFBB7932</masterclipid>
                    <file id="E2BDC153-DF8B-416B-A8E2-A9A738227853">
                      <name>Cam_8_Take_1_Day_1_Cave_Art_VRSE_Cam_GOPR9999.MP4</name>
                      <rate>
                        <ntsc>TRUE</ntsc>
                        <timebase>60</timebase>
                      </rate>
                      <duration>19478</duration>
                      <media>
                        <video>
                          <samplecharacteristics>
                            <width>2704</width>
                            <height>1520</height>
                            <anamorphic>FALSE</anamorphic>
                            <pixelaspectratio>square</pixelaspectratio>
                          </samplecharacteristics>
                          <duration>19478</duration>
                        </video>
                        <audio>
                          <channelcount>2</channelcount>
                          <samplecharacteristics>
                            <samplerate>48000</samplerate>
                          </samplecharacteristics>
                          <layout>stereo</layout>
                          <audiochannel>
                            <sourcechannel>1</sourcechannel>
                          </audiochannel>
                        </audio>
                      </media>
                      <timecode>
                        <frame>2280849</frame>
                        <displayformat>DF</displayformat>
                      </timecode>
                      <pathurl>file:///Volumes/TA_VR_M2/Northern_Territory/Katherine/Day%201%20VRSE%20Cave%20Art/Take%201/Cam_8_Take_1_Day_1_Cave_Art_VRSE_Cam_GOPR9999.MP4</pathurl>
                    </file>
                    <link>
                      <mediatype>video</mediatype>
                      <trackindex>1</trackindex>
                      <clipindex>1</clipindex>
                      <groupindex>1</groupindex>
                      <linkclipref>FE482436-3BDB-4EF8-8578-143CBFAA258C</linkclipref>
                    </link>
                    <link>
                      <mediatype>audio</mediatype>
                      <trackindex>1</trackindex>
                      <clipindex>1</clipindex>
                      <groupindex>1</groupindex>
                      <linkclipref>67E2D542-9E73-4079-9C9B-D9F70C27B78D</linkclipref>
                    </link>
                    <link>
                      <mediatype>audio</mediatype>
                      <trackindex>2</trackindex>
                      <clipindex>1</clipindex>
                      <groupindex>1</groupindex>
                      <linkclipref>F7B71FFA-E7DD-48BF-B9BD-285871BA12F4</linkclipref>
                    </link>
                  </clipitem>
                  <enabled>TRUE</enabled>
                  <locked>FALSE</locked>
                </track>
                <track>
                  <clipitem id="F7B71FFA-E7DD-48BF-B9BD-285871BA12F4">
                    <masterclipid>A4703F2D-2A22-42C5-8F3B-4164DFBB7932</masterclipid>
                    <file id="E2BDC153-DF8B-416B-A8E2-A9A738227853">
                      <name>Cam_8_Take_1_Day_1_Cave_Art_VRSE_Cam_GOPR9999.MP4</name>
                      <rate>
                        <ntsc>TRUE</ntsc>
                        <timebase>60</timebase>
                      </rate>
                      <duration>19478</duration>
                      <media>
                        <video>
                          <samplecharacteristics>
                            <width>2704</width>
                            <height>1520</height>
                            <anamorphic>FALSE</anamorphic>
                            <pixelaspectratio>square</pixelaspectratio>
                          </samplecharacteristics>
                          <duration>19478</duration>
                        </video>
                        <audio>
                          <channelcount>2</channelcount>
                          <samplecharacteristics>
                            <samplerate>48000</samplerate>
                          </samplecharacteristics>
                          <layout>stereo</layout>
                          <audiochannel>
                            <sourcechannel>1</sourcechannel>
                          </audiochannel>
                        </audio>
                      </media>
                      <timecode>
                        <frame>2280849</frame>
                        <displayformat>DF</displayformat>
                      </timecode>
                      <pathurl>file:///Volumes/TA_VR_M2/Northern_Territory/Katherine/Day%201%20VRSE%20Cave%20Art/Take%201/Cam_8_Take_1_Day_1_Cave_Art_VRSE_Cam_GOPR9999.MP4</pathurl>
                    </file>
                    <link>
                      <mediatype>video</mediatype>
                      <trackindex>1</trackindex>
                      <clipindex>1</clipindex>
                      <groupindex>1</groupindex>
                      <linkclipref>FE482436-3BDB-4EF8-8578-143CBFAA258C</linkclipref>
                    </link>
                    <link>
                      <mediatype>audio</mediatype>
                      <trackindex>1</trackindex>
                      <clipindex>1</clipindex>
                      <groupindex>1</groupindex>
                      <linkclipref>67E2D542-9E73-4079-9C9B-D9F70C27B78D</linkclipref>
                    </link>
                    <link>
                      <mediatype>audio</mediatype>
                      <trackindex>2</trackindex>
                      <clipindex>1</clipindex>
                      <groupindex>1</groupindex>
                      <linkclipref>F7B71FFA-E7DD-48BF-B9BD-285871BA12F4</linkclipref>
                    </link>
                  </clipitem>
                  <enabled>TRUE</enabled>
                  <locked>FALSE</locked>
                </track>
              </audio>
            </media>
          </clip>
        </children>
      </bin>
      <sequence id="64C05F23-E939-4D33-BC60-FF247CFFA3BF">
        <name>Synced Sequence</name>
        <duration>19676</duration>
        <rate>
          <ntsc>TRUE</ntsc>
          <timebase>60</timebase>
        </rate>
        <marker>
          <name>pluraleyes 000</name>
          <in>0</in>
          <out>-1</out>
        </marker>
        <media>
          <video>
            <track>
              <clipitem id="F64077AE-D120-4D0A-8813-24C14820CF0F" premiereChannelType="stereo">
                <name>Cam_1_Take_1_Day_1_Cave_Art_VRSE_Cam_GOPR0002.MP4</name>
                <duration>18332</duration>
                <in>0</in>
                <out>18332</out>
                <start>386</start>
                <end>18718</end>
                <masterclipid>AF439898-31C3-4EDC-A7BB-08C5F6999BF5</masterclipid>
                <file id="019F398B-5182-42B5-97BC-57472E69DE38">
                  <name>Cam_1_Take_1_Day_1_Cave_Art_VRSE_Cam_GOPR0002.MP4</name>
                  <rate>
                    <ntsc>TRUE</ntsc>
                    <timebase>60</timebase>
                  </rate>
                  <duration>18332</duration>
                  <media>
                    <video>
                      <samplecharacteristics>
                        <width>2704</width>
                        <height>1520</height>
                        <anamorphic>FALSE</anamorphic>
                        <pixelaspectratio>square</pixelaspectratio>
                      </samplecharacteristics>
                      <duration>18332</duration>
                    </video>
                    <audio>
                      <channelcount>2</channelcount>
                      <samplecharacteristics>
                        <samplerate>48000</samplerate>
                      </samplecharacteristics>
                      <layout>stereo</layout>
                      <audiochannel>
                        <sourcechannel>1</sourcechannel>
                      </audiochannel>
                    </audio>
                  </media>
                  <timecode>
                    <frame>3194335</frame>
                    <displayformat>DF</displayformat>
                  </timecode>
                  <pathurl>file:///Volumes/TA_VR_M2/Northern_Territory/Katherine/Day%201%20VRSE%20Cave%20Art/Take%201/Cam_1_Take_1_Day_1_Cave_Art_VRSE_Cam_GOPR0002.MP4</pathurl>
                </file>
                <sourcetrack>
                  <mediatype>video</mediatype>
                  <trackindex>1</trackindex>
                </sourcetrack>
                <link>
                  <mediatype>video</mediatype>
                  <trackindex>1</trackindex>
                  <clipindex>1</clipindex>
                  <groupindex>1</groupindex>
                  <linkclipref>F64077AE-D120-4D0A-8813-24C14820CF0F</linkclipref>
                </link>
                <link>
                  <mediatype>audio</mediatype>
                  <trackindex>1</trackindex>
                  <clipindex>1</clipindex>
                  <groupindex>1</groupindex>
                  <linkclipref>545AF19F-A25E-4A56-9895-B86065EE1492</linkclipref>
                </link>
                <link>
                  <mediatype>audio</mediatype>
                  <trackindex>2</trackindex>
                  <clipindex>1</clipindex>
                  <groupindex>1</groupindex>
                  <linkclipref>B2F71230-D040-46C4-9563-F7BDCE0A029F</linkclipref>
                </link>
              </clipitem>
              <enabled>TRUE</enabled>
              <locked>FALSE</locked>
            </track>
            <track>
              <clipitem id="D282076E-F285-42E9-B031-773B6B645C61" premiereChannelType="stereo">
                <name>Cam_2_Take_1_Day_1_Cave_Art_VRSE_Cam_GOPR9289.MP4</name>
                <duration>18417</duration>
                <in>0</in>
                <out>18417</out>
                <start>436</start>
                <end>18853</end>
                <masterclipid>1D6BC4FC-F5DA-4B33-B5CD-DF48FAE56289</masterclipid>
                <file id="46BFCB37-F142-4622-944B-5E433F42B56E">
                  <name>Cam_2_Take_1_Day_1_Cave_Art_VRSE_Cam_GOPR9289.MP4</name>
                  <rate>
                    <ntsc>TRUE</ntsc>
                    <timebase>60</timebase>
                  </rate>
                  <duration>18417</duration>
                  <media>
                    <video>
                      <samplecharacteristics>
                        <width>2704</width>
                        <height>1520</height>
                        <anamorphic>FALSE</anamorphic>
                        <pixelaspectratio>square</pixelaspectratio>
                      </samplecharacteristics>
                      <duration>18417</duration>
                    </video>
                    <audio>
                      <channelcount>2</channelcount>
                      <samplecharacteristics>
                        <samplerate>48000</samplerate>
                      </samplecharacteristics>
                      <layout>stereo</layout>
                      <audiochannel>
                        <sourcechannel>1</sourcechannel>
                      </audiochannel>
                    </audio>
                  </media>
                  <timecode>
                    <frame>3707169</frame>
                    <displayformat>DF</displayformat>
                  </timecode>
                  <pathurl>file:///Volumes/TA_VR_M2/Northern_Territory/Katherine/Day%201%20VRSE%20Cave%20Art/Take%201/Cam_2_Take_1_Day_1_Cave_Art_VRSE_Cam_GOPR9289.MP4</pathurl>
                </file>
                <sourcetrack>
                  <mediatype>video</mediatype>
                  <trackindex>1</trackindex>
                </sourcetrack>
                <link>
                  <mediatype>video</mediatype>
                  <trackindex>2</trackindex>
                  <clipindex>1</clipindex>
                  <groupindex>1</groupindex>
                  <linkclipref>D282076E-F285-42E9-B031-773B6B645C61</linkclipref>
                </link>
                <link>
                  <mediatype>audio</mediatype>
                  <trackindex>3</trackindex>
                  <clipindex>1</clipindex>
                  <groupindex>1</groupindex>
                  <linkclipref>B831D35E-154E-4D14-B906-6647ADFA6690</linkclipref>
                </link>
                <link>
                  <mediatype>audio</mediatype>
                  <trackindex>4</trackindex>
                  <clipindex>1</clipindex>
                  <groupindex>1</groupindex>
                  <linkclipref>13856499-485B-44A5-98A9-4295A87B8E4B</linkclipref>
                </link>
              </clipitem>
              <enabled>TRUE</enabled>
              <locked>FALSE</locked>
            </track>
            <track>
              <clipitem id="B1944234-556B-45E4-A253-E44BB8C0BF0B" premiereChannelType="stereo">
                <name>Cam_4_Take_1_Day_1_Cave_Art_VRSE_Cam_GOPR0115.MP4</name>
                <duration>19030</duration>
                <in>0</in>
                <out>19030</out>
                <start>0</start>
                <end>19030</end>
                <masterclipid>2F4E284F-75F8-43F4-995A-3EAA1B14E16A</masterclipid>
                <file id="CD2CB6DF-030C-401E-90E6-58940DB6CC52">
                  <name>Cam_4_Take_1_Day_1_Cave_Art_VRSE_Cam_GOPR0115.MP4</name>
                  <rate>
                    <ntsc>TRUE</ntsc>
                    <timebase>60</timebase>
                  </rate>
                  <duration>19030</duration>
                  <media>
                    <video>
                      <samplecharacteristics>
                        <width>2704</width>
                        <height>1520</height>
                        <anamorphic>FALSE</anamorphic>
                        <pixelaspectratio>square</pixelaspectratio>
                      </samplecharacteristics>
                      <duration>19030</duration>
                    </video>
                    <audio>
                      <channelcount>2</channelcount>
                      <samplecharacteristics>
                        <samplerate>48000</samplerate>
                      </samplecharacteristics>
                      <layout>stereo</layout>
                      <audiochannel>
                        <sourcechannel>1</sourcechannel>
                      </audiochannel>
                    </audio>
                  </media>
                  <timecode>
                    <frame>1661778</frame>
                    <displayformat>DF</displayformat>
                  </timecode>
                  <pathurl>file:///Volumes/TA_VR_M2/Northern_Territory/Katherine/Day%201%20VRSE%20Cave%20Art/Take%201/Cam_4_Take_1_Day_1_Cave_Art_VRSE_Cam_GOPR0115.MP4</pathurl>
                </file>
                <sourcetrack>
                  <mediatype>video</mediatype>
                  <trackindex>1</trackindex>
                </sourcetrack>
                <link>
                  <mediatype>video</mediatype>
                  <trackindex>3</trackindex>
                  <clipindex>1</clipindex>
                  <groupindex>1</groupindex>
                  <linkclipref>B1944234-556B-45E4-A253-E44BB8C0BF0B</linkclipref>
                </link>
                <link>
                  <mediatype>audio</mediatype>
                  <trackindex>5</trackindex>
                  <clipindex>1</clipindex>
                  <groupindex>1</groupindex>
                  <linkclipref>4CA32118-5D5D-47A0-8B5B-899EB73EEBF2</linkclipref>
                </link>
                <link>
                  <mediatype>audio</mediatype>
                  <trackindex>6</trackindex>
                  <clipindex>1</clipindex>
                  <groupindex>1</groupindex>
                  <linkclipref>BF23B2C8-6549-4C3B-9228-0ED6427F9ED8</linkclipref>
                </link>
              </clipitem>
              <enabled>TRUE</enabled>
              <locked>FALSE</locked>
            </track>
            <track>
              <clipitem id="ABE511E1-97AA-47EF-BF8B-6B9FCA485ACD" premiereChannelType="stereo">
                <name>Cam_5_Take_1_Day_1_Cave_Art_VRSE_Cam_GOPR9602.MP4</name>
                <duration>19130</duration>
                <in>0</in>
                <out>19130</out>
                <start>35</start>
                <end>19165</end>
                <masterclipid>2A040FFB-601B-4B98-A8D6-7DAE3E56CBC8</masterclipid>
                <file id="DF548BA4-3B93-4EFF-B81E-7C2E065C36F2">
                  <name>Cam_5_Take_1_Day_1_Cave_Art_VRSE_Cam_GOPR9602.MP4</name>
                  <rate>
                    <ntsc>TRUE</ntsc>
                    <timebase>60</timebase>
                  </rate>
                  <duration>19130</duration>
                  <media>
                    <video>
                      <samplecharacteristics>
                        <width>2704</width>
                        <height>1520</height>
                        <anamorphic>FALSE</anamorphic>
                        <pixelaspectratio>square</pixelaspectratio>
                      </samplecharacteristics>
                      <duration>19130</duration>
                    </video>
                    <audio>
                      <channelcount>2</channelcount>
                      <samplecharacteristics>
                        <samplerate>48000</samplerate>
                      </samplecharacteristics>
                      <layout>stereo</layout>
                      <audiochannel>
                        <sourcechannel>1</sourcechannel>
                      </audiochannel>
                    </audio>
                  </media>
                  <timecode>
                    <frame>4956369</frame>
                    <displayformat>DF</displayformat>
                  </timecode>
                  <pathurl>file:///Volumes/TA_VR_M2/Northern_Territory/Katherine/Day%201%20VRSE%20Cave%20Art/Take%201/Cam_5_Take_1_Day_1_Cave_Art_VRSE_Cam_GOPR9602.MP4</pathurl>
                </file>
                <sourcetrack>
                  <mediatype>video</mediatype>
                  <trackindex>1</trackindex>
                </sourcetrack>
                <link>
                  <mediatype>video</mediatype>
                  <trackindex>4</trackindex>
                  <clipindex>1</clipindex>
                  <groupindex>1</groupindex>
                  <linkclipref>ABE511E1-97AA-47EF-BF8B-6B9FCA485ACD</linkclipref>
                </link>
                <link>
                  <mediatype>audio</mediatype>
                  <trackindex>7</trackindex>
                  <clipindex>1</clipindex>
                  <groupindex>1</groupindex>
                  <linkclipref>B2BC1798-EC7C-4ED2-A80D-F6D9A002EE87</linkclipref>
                </link>
                <link>
                  <mediatype>audio</mediatype>
                  <trackindex>8</trackindex>
                  <clipindex>1</clipindex>
                  <groupindex>1</groupindex>
                  <linkclipref>C5002E95-F6AA-4D79-BE61-7BBB9D8AE175</linkclipref>
                </link>
              </clipitem>
              <enabled>TRUE</enabled>
              <locked>FALSE</locked>
            </track>
            <track>
              <clipitem id="D0E18982-7A76-4D04-8A5A-76340A086CFF" premiereChannelType="stereo">
                <name>Cam_6_Take_1_Day_1_Cave_Art_VRSE_Cam_GOPR9987.MP4</name>
                <duration>19163</duration>
                <in>0</in>
                <out>19163</out>
                <start>93</start>
                <end>19256</end>
                <masterclipid>EC71AE1F-CEEB-4BEE-9AB8-59CD903809CB</masterclipid>
                <file id="E3866DEB-189E-43C4-8339-0EA16D1BE592">
                  <name>Cam_6_Take_1_Day_1_Cave_Art_VRSE_Cam_GOPR9987.MP4</name>
                  <rate>
                    <ntsc>TRUE</ntsc>
                    <timebase>60</timebase>
                  </rate>
                  <duration>19163</duration>
                  <media>
                    <video>
                      <samplecharacteristics>
                        <width>2704</width>
                        <height>1520</height>
                        <anamorphic>FALSE</anamorphic>
                        <pixelaspectratio>square</pixelaspectratio>
                      </samplecharacteristics>
                      <duration>19163</duration>
                    </video>
                    <audio>
                      <channelcount>2</channelcount>
                      <samplecharacteristics>
                        <samplerate>48000</samplerate>
                      </samplecharacteristics>
                      <layout>stereo</layout>
                      <audiochannel>
                        <sourcechannel>1</sourcechannel>
                      </audiochannel>
                    </audio>
                  </media>
                  <timecode>
                    <frame>2027534</frame>
                    <displayformat>DF</displayformat>
                  </timecode>
                  <pathurl>file:///Volumes/TA_VR_M2/Northern_Territory/Katherine/Day%201%20VRSE%20Cave%20Art/Take%201/Cam_6_Take_1_Day_1_Cave_Art_VRSE_Cam_GOPR9987.MP4</pathurl>
                </file>
                <sourcetrack>
                  <mediatype>video</mediatype>
                  <trackindex>1</trackindex>
                </sourcetrack>
                <link>
                  <mediatype>video</mediatype>
                  <trackindex>5</trackindex>
                  <clipindex>1</clipindex>
                  <groupindex>1</groupindex>
                  <linkclipref>D0E18982-7A76-4D04-8A5A-76340A086CFF</linkclipref>
                </link>
                <link>
                  <mediatype>audio</mediatype>
                  <trackindex>9</trackindex>
                  <clipindex>1</clipindex>
                  <groupindex>1</groupindex>
                  <linkclipref>DE912FD2-8496-4784-96DF-0C5A9D0855C0</linkclipref>
                </link>
                <link>
                  <mediatype>audio</mediatype>
                  <trackindex>10</trackindex>
                  <clipindex>1</clipindex>
                  <groupindex>1</groupindex>
                  <linkclipref>CE72A896-160B-4887-9E32-D2864E1A0D7D</linkclipref>
                </link>
              </clipitem>
              <enabled>TRUE</enabled>
              <locked>FALSE</locked>
            </track>
            <track>
              <clipitem id="D56F4B58-824E-41D0-9253-958C6829CC85" premiereChannelType="stereo">
                <name>Cam_7_Take_1_Day_1_Cave_Art_VRSE_Cam_GOPR6371.MP4</name>
                <duration>19186</duration>
                <in>0</in>
                <out>19186</out>
                <start>138</start>
                <end>19324</end>
                <masterclipid>31481EA0-F81D-419A-ADFB-34638993D06B</masterclipid>
                <file id="5197FFFC-AAAA-415E-9F26-C99569058889">
                  <name>Cam_7_Take_1_Day_1_Cave_Art_VRSE_Cam_GOPR6371.MP4</name>
                  <rate>
                    <ntsc>TRUE</ntsc>
                    <timebase>60</timebase>
                  </rate>
                  <duration>19186</duration>
                  <media>
                    <video>
                      <samplecharacteristics>
                        <width>2704</width>
                        <height>1520</height>
                        <anamorphic>FALSE</anamorphic>
                        <pixelaspectratio>square</pixelaspectratio>
                      </samplecharacteristics>
                      <duration>19186</duration>
                    </video>
                    <audio>
                      <channelcount>2</channelcount>
                      <samplecharacteristics>
                        <samplerate>48000</samplerate>
                      </samplecharacteristics>
                      <layout>stereo</layout>
                      <audiochannel>
                        <sourcechannel>1</sourcechannel>
                      </audiochannel>
                    </audio>
                  </media>
                  <timecode>
                    <frame>3705250</frame>
                    <displayformat>DF</displayformat>
                  </timecode>
                  <pathurl>file:///Volumes/TA_VR_M2/Northern_Territory/Katherine/Day%201%20VRSE%20Cave%20Art/Take%201/Cam_7_Take_1_Day_1_Cave_Art_VRSE_Cam_GOPR6371.MP4</pathurl>
                </file>
                <sourcetrack>
                  <mediatype>video</mediatype>
                  <trackindex>1</trackindex>
                </sourcetrack>
                <link>
                  <mediatype>video</mediatype>
                  <trackindex>6</trackindex>
                  <clipindex>1</clipindex>
                  <groupindex>1</groupindex>
                  <linkclipref>D56F4B58-824E-41D0-9253-958C6829CC85</linkclipref>
                </link>
                <link>
                  <mediatype>audio</mediatype>
                  <trackindex>11</trackindex>
                  <clipindex>1</clipindex>
                  <groupindex>1</groupindex>
                  <linkclipref>21566F9F-899E-43BC-A6A8-AC870688688A</linkclipref>
                </link>
                <link>
                  <mediatype>audio</mediatype>
                  <trackindex>12</trackindex>
                  <clipindex>1</clipindex>
                  <groupindex>1</groupindex>
                  <linkclipref>5FFA690B-D50E-4C1A-8D46-ACA5224F0F40</linkclipref>
                </link>
              </clipitem>
              <enabled>TRUE</enabled>
              <locked>FALSE</locked>
            </track>
            <track>
              <clipitem id="C09D3961-190E-4121-A179-3EA4AC00AAF8" premiereChannelType="stereo">
                <name>Cam_8_Take_1_Day_1_Cave_Art_VRSE_Cam_GOPR9999.MP4</name>
                <duration>19478</duration>
                <in>0</in>
                <out>19478</out>
                <start>198</start>
                <end>19676</end>
                <masterclipid>A4703F2D-2A22-42C5-8F3B-4164DFBB7932</masterclipid>
                <file id="E2BDC153-DF8B-416B-A8E2-A9A738227853">
                  <name>Cam_8_Take_1_Day_1_Cave_Art_VRSE_Cam_GOPR9999.MP4</name>
                  <rate>
                    <ntsc>TRUE</ntsc>
                    <timebase>60</timebase>
                  </rate>
                  <duration>19478</duration>
                  <media>
                    <video>
                      <samplecharacteristics>
                        <width>2704</width>
                        <height>1520</height>
                        <anamorphic>FALSE</anamorphic>
                        <pixelaspectratio>square</pixelaspectratio>
                      </samplecharacteristics>
                      <duration>19478</duration>
                    </video>
                    <audio>
                      <channelcount>2</channelcount>
                      <samplecharacteristics>
                        <samplerate>48000</samplerate>
                      </samplecharacteristics>
                      <layout>stereo</layout>
                      <audiochannel>
                        <sourcechannel>1</sourcechannel>
                      </audiochannel>
                    </audio>
                  </media>
                  <timecode>
                    <frame>2280849</frame>
                    <displayformat>DF</displayformat>
                  </timecode>
                  <pathurl>file:///Volumes/TA_VR_M2/Northern_Territory/Katherine/Day%201%20VRSE%20Cave%20Art/Take%201/Cam_8_Take_1_Day_1_Cave_Art_VRSE_Cam_GOPR9999.MP4</pathurl>
                </file>
                <sourcetrack>
                  <mediatype>video</mediatype>
                  <trackindex>1</trackindex>
                </sourcetrack>
                <link>
                  <mediatype>video</mediatype>
                  <trackindex>7</trackindex>
                  <clipindex>1</clipindex>
                  <groupindex>1</groupindex>
                  <linkclipref>C09D3961-190E-4121-A179-3EA4AC00AAF8</linkclipref>
                </link>
                <link>
                  <mediatype>audio</mediatype>
                  <trackindex>13</trackindex>
                  <clipindex>1</clipindex>
                  <groupindex>1</groupindex>
                  <linkclipref>00056FFB-A9AA-434B-9067-035FA4C04DBF</linkclipref>
                </link>
                <link>
                  <mediatype>audio</mediatype>
                  <trackindex>14</trackindex>
                  <clipindex>1</clipindex>
                  <groupindex>1</groupindex>
                  <linkclipref>4CEC8669-B25C-426F-9106-CA50C1A77D34</linkclipref>
                </link>
              </clipitem>
              <enabled>TRUE</enabled>
              <locked>FALSE</locked>
            </track>
            <format>
              <samplecharacteristics>
                <width>2704</width>
                <height>1520</height>
                <anamorphic>FALSE</anamorphic>
                <pixelaspectratio>square</pixelaspectratio>
                <rate>
                  <ntsc>TRUE</ntsc>
                  <timebase>60</timebase>
                </rate>
              </samplecharacteristics>
            </format>
          </video>
          <audio>
            <track TL.SQTrackExpanded="0" currentExplodedTrackIndex="0" premiereTrackType="Stereo" totalExplodedTrackCount="2">
              <clipitem id="545AF19F-A25E-4A56-9895-B86065EE1492" premiereChannelType="stereo">
                <name>Cam_1_Take_1_Day_1_Cave_Art_VRSE_Cam_GOPR0002.MP4</name>
                <duration>18332</duration>
                <in>0</in>
                <out>18332</out>
                <start>386</start>
                <end>18718</end>
                <masterclipid>AF439898-31C3-4EDC-A7BB-08C5F6999BF5</masterclipid>
                <file id="019F398B-5182-42B5-97BC-57472E69DE38">
                  <name>Cam_1_Take_1_Day_1_Cave_Art_VRSE_Cam_GOPR0002.MP4</name>
                  <rate>
                    <ntsc>TRUE</ntsc>
                    <timebase>60</timebase>
                  </rate>
                  <duration>18332</duration>
                  <media>
                    <video>
                      <samplecharacteristics>
                        <width>2704</width>
                        <height>1520</height>
                        <anamorphic>FALSE</anamorphic>
                        <pixelaspectratio>square</pixelaspectratio>
                      </samplecharacteristics>
                      <duration>18332</duration>
                    </video>
                    <audio>
                      <channelcount>2</channelcount>
                      <samplecharacteristics>
                        <samplerate>48000</samplerate>
                      </samplecharacteristics>
                      <layout>stereo</layout>
                      <audiochannel>
                        <sourcechannel>1</sourcechannel>
                      </audiochannel>
                    </audio>
                  </media>
                  <timecode>
                    <frame>3194335</frame>
                    <displayformat>DF</displayformat>
                  </timecode>
                  <pathurl>file:///Volumes/TA_VR_M2/Northern_Territory/Katherine/Day%201%20VRSE%20Cave%20Art/Take%201/Cam_1_Take_1_Day_1_Cave_Art_VRSE_Cam_GOPR0002.MP4</pathurl>
                </file>
                <sourcetrack>
                  <mediatype>audio</mediatype>
                  <trackindex>1</trackindex>
                </sourcetrack>
                <link>
                  <mediatype>video</mediatype>
                  <trackindex>1</trackindex>
                  <clipindex>1</clipindex>
                  <groupindex>1</groupindex>
                  <linkclipref>F64077AE-D120-4D0A-8813-24C14820CF0F</linkclipref>
                </link>
                <link>
                  <mediatype>audio</mediatype>
                  <trackindex>1</trackindex>
                  <clipindex>1</clipindex>
                  <groupindex>1</groupindex>
                  <linkclipref>545AF19F-A25E-4A56-9895-B86065EE1492</linkclipref>
                </link>
                <link>
                  <mediatype>audio</mediatype>
                  <trackindex>2</trackindex>
                  <clipindex>1</clipindex>
                  <groupindex>1</groupindex>
                  <linkclipref>B2F71230-D040-46C4-9563-F7BDCE0A029F</linkclipref>
                </link>
              </clipitem>
              <enabled>TRUE</enabled>
              <locked>FALSE</locked>
            </track>
            <track TL.SQTrackExpanded="0" currentExplodedTrackIndex="1" premiereTrackType="Stereo" totalExplodedTrackCount="2">
              <clipitem id="B2F71230-D040-46C4-9563-F7BDCE0A029F" premiereChannelType="stereo">
                <name>Cam_1_Take_1_Day_1_Cave_Art_VRSE_Cam_GOPR0002.MP4</name>
                <duration>18332</duration>
                <in>0</in>
                <out>18332</out>
                <start>386</start>
                <end>18718</end>
                <masterclipid>AF439898-31C3-4EDC-A7BB-08C5F6999BF5</masterclipid>
                <file id="019F398B-5182-42B5-97BC-57472E69DE38">
                  <name>Cam_1_Take_1_Day_1_Cave_Art_VRSE_Cam_GOPR0002.MP4</name>
                  <rate>
                    <ntsc>TRUE</ntsc>
                    <timebase>60</timebase>
                  </rate>
                  <duration>18332</duration>
                  <media>
                    <video>
                      <samplecharacteristics>
                        <width>2704</width>
                        <height>1520</height>
                        <anamorphic>FALSE</anamorphic>
                        <pixelaspectratio>square</pixelaspectratio>
                      </samplecharacteristics>
                      <duration>18332</duration>
                    </video>
                    <audio>
                      <channelcount>2</channelcount>
                      <samplecharacteristics>
                        <samplerate>48000</samplerate>
                      </samplecharacteristics>
                      <layout>stereo</layout>
                      <audiochannel>
                        <sourcechannel>1</sourcechannel>
                      </audiochannel>
                    </audio>
                  </media>
                  <timecode>
                    <frame>3194335</frame>
                    <displayformat>DF</displayformat>
                  </timecode>
                  <pathurl>file:///Volumes/TA_VR_M2/Northern_Territory/Katherine/Day%201%20VRSE%20Cave%20Art/Take%201/Cam_1_Take_1_Day_1_Cave_Art_VRSE_Cam_GOPR0002.MP4</pathurl>
                </file>
                <sourcetrack>
                  <mediatype>audio</mediatype>
                  <trackindex>2</trackindex>
                </sourcetrack>
                <link>
                  <mediatype>video</mediatype>
                  <trackindex>1</trackindex>
                  <clipindex>1</clipindex>
                  <groupindex>1</groupindex>
                  <linkclipref>F64077AE-D120-4D0A-8813-24C14820CF0F</linkclipref>
                </link>
                <link>
                  <mediatype>audio</mediatype>
                  <trackindex>1</trackindex>
                  <clipindex>1</clipindex>
                  <groupindex>1</groupindex>
                  <linkclipref>545AF19F-A25E-4A56-9895-B86065EE1492</linkclipref>
                </link>
                <link>
                  <mediatype>audio</mediatype>
                  <trackindex>2</trackindex>
                  <clipindex>1</clipindex>
                  <groupindex>1</groupindex>
                  <linkclipref>B2F71230-D040-46C4-9563-F7BDCE0A029F</linkclipref>
                </link>
              </clipitem>
              <enabled>TRUE</enabled>
              <locked>FALSE</locked>
            </track>
            <track TL.SQTrackExpanded="0" currentExplodedTrackIndex="0" premiereTrackType="Stereo" totalExplodedTrackCount="2">
              <clipitem id="B831D35E-154E-4D14-B906-6647ADFA6690" premiereChannelType="stereo">
                <name>Cam_2_Take_1_Day_1_Cave_Art_VRSE_Cam_GOPR9289.MP4</name>
                <duration>18417</duration>
                <in>0</in>
                <out>18417</out>
                <start>436</start>
                <end>18853</end>
                <masterclipid>1D6BC4FC-F5DA-4B33-B5CD-DF48FAE56289</masterclipid>
                <file id="46BFCB37-F142-4622-944B-5E433F42B56E">
                  <name>Cam_2_Take_1_Day_1_Cave_Art_VRSE_Cam_GOPR9289.MP4</name>
                  <rate>
                    <ntsc>TRUE</ntsc>
                    <timebase>60</timebase>
                  </rate>
                  <duration>18417</duration>
                  <media>
                    <video>
                      <samplecharacteristics>
                        <width>2704</width>
                        <height>1520</height>
                        <anamorphic>FALSE</anamorphic>
                        <pixelaspectratio>square</pixelaspectratio>
                      </samplecharacteristics>
                      <duration>18417</duration>
                    </video>
                    <audio>
                      <channelcount>2</channelcount>
                      <samplecharacteristics>
                        <samplerate>48000</samplerate>
                      </samplecharacteristics>
                      <layout>stereo</layout>
                      <audiochannel>
                        <sourcechannel>1</sourcechannel>
                      </audiochannel>
                    </audio>
                  </media>
                  <timecode>
                    <frame>3707169</frame>
                    <displayformat>DF</displayformat>
                  </timecode>
                  <pathurl>file:///Volumes/TA_VR_M2/Northern_Territory/Katherine/Day%201%20VRSE%20Cave%20Art/Take%201/Cam_2_Take_1_Day_1_Cave_Art_VRSE_Cam_GOPR9289.MP4</pathurl>
                </file>
                <sourcetrack>
                  <mediatype>audio</mediatype>
                  <trackindex>1</trackindex>
                </sourcetrack>
                <link>
                  <mediatype>video</mediatype>
                  <trackindex>2</trackindex>
                  <clipindex>1</clipindex>
                  <groupindex>1</groupindex>
                  <linkclipref>D282076E-F285-42E9-B031-773B6B645C61</linkclipref>
                </link>
                <link>
                  <mediatype>audio</mediatype>
                  <trackindex>3</trackindex>
                  <clipindex>1</clipindex>
                  <groupindex>1</groupindex>
                  <linkclipref>B831D35E-154E-4D14-B906-6647ADFA6690</linkclipref>
                </link>
                <link>
                  <mediatype>audio</mediatype>
                  <trackindex>4</trackindex>
                  <clipindex>1</clipindex>
                  <groupindex>1</groupindex>
                  <linkclipref>13856499-485B-44A5-98A9-4295A87B8E4B</linkclipref>
                </link>
              </clipitem>
              <enabled>TRUE</enabled>
              <locked>FALSE</locked>
            </track>
            <track TL.SQTrackExpanded="0" currentExplodedTrackIndex="1" premiereTrackType="Stereo" totalExplodedTrackCount="2">
              <clipitem id="13856499-485B-44A5-98A9-4295A87B8E4B" premiereChannelType="stereo">
                <name>Cam_2_Take_1_Day_1_Cave_Art_VRSE_Cam_GOPR9289.MP4</name>
                <duration>18417</duration>
                <in>0</in>
                <out>18417</out>
                <start>436</start>
                <end>18853</end>
                <masterclipid>1D6BC4FC-F5DA-4B33-B5CD-DF48FAE56289</masterclipid>
                <file id="46BFCB37-F142-4622-944B-5E433F42B56E">
                  <name>Cam_2_Take_1_Day_1_Cave_Art_VRSE_Cam_GOPR9289.MP4</name>
                  <rate>
                    <ntsc>TRUE</ntsc>
                    <timebase>60</timebase>
                  </rate>
                  <duration>18417</duration>
                  <media>
                    <video>
                      <samplecharacteristics>
                        <width>2704</width>
                        <height>1520</height>
                        <anamorphic>FALSE</anamorphic>
                        <pixelaspectratio>square</pixelaspectratio>
                      </samplecharacteristics>
                      <duration>18417</duration>
                    </video>
                    <audio>
                      <channelcount>2</channelcount>
                      <samplecharacteristics>
                        <samplerate>48000</samplerate>
                      </samplecharacteristics>
                      <layout>stereo</layout>
                      <audiochannel>
                        <sourcechannel>1</sourcechannel>
                      </audiochannel>
                    </audio>
                  </media>
                  <timecode>
                    <frame>3707169</frame>
                    <displayformat>DF</displayformat>
                  </timecode>
                  <pathurl>file:///Volumes/TA_VR_M2/Northern_Territory/Katherine/Day%201%20VRSE%20Cave%20Art/Take%201/Cam_2_Take_1_Day_1_Cave_Art_VRSE_Cam_GOPR9289.MP4</pathurl>
                </file>
                <sourcetrack>
                  <mediatype>audio</mediatype>
                  <trackindex>2</trackindex>
                </sourcetrack>
                <link>
                  <mediatype>video</mediatype>
                  <trackindex>2</trackindex>
                  <clipindex>1</clipindex>
                  <groupindex>1</groupindex>
                  <linkclipref>D282076E-F285-42E9-B031-773B6B645C61</linkclipref>
                </link>
                <link>
                  <mediatype>audio</mediatype>
                  <trackindex>3</trackindex>
                  <clipindex>1</clipindex>
                  <groupindex>1</groupindex>
                  <linkclipref>B831D35E-154E-4D14-B906-6647ADFA6690</linkclipref>
                </link>
                <link>
                  <mediatype>audio</mediatype>
                  <trackindex>4</trackindex>
                  <clipindex>1</clipindex>
                  <groupindex>1</groupindex>
                  <linkclipref>13856499-485B-44A5-98A9-4295A87B8E4B</linkclipref>
                </link>
              </clipitem>
              <enabled>TRUE</enabled>
              <locked>FALSE</locked>
            </track>
            <track TL.SQTrackExpanded="0" currentExplodedTrackIndex="0" premiereTrackType="Stereo" totalExplodedTrackCount="2">
              <clipitem id="4CA32118-5D5D-47A0-8B5B-899EB73EEBF2" premiereChannelType="stereo">
                <name>Cam_4_Take_1_Day_1_Cave_Art_VRSE_Cam_GOPR0115.MP4</name>
                <duration>19030</duration>
                <in>0</in>
                <out>19030</out>
                <start>0</start>
                <end>19030</end>
                <masterclipid>2F4E284F-75F8-43F4-995A-3EAA1B14E16A</masterclipid>
                <file id="CD2CB6DF-030C-401E-90E6-58940DB6CC52">
                  <name>Cam_4_Take_1_Day_1_Cave_Art_VRSE_Cam_GOPR0115.MP4</name>
                  <rate>
                    <ntsc>TRUE</ntsc>
                    <timebase>60</timebase>
                  </rate>
                  <duration>19030</duration>
                  <media>
                    <video>
                      <samplecharacteristics>
                        <width>2704</width>
                        <height>1520</height>
                        <anamorphic>FALSE</anamorphic>
                        <pixelaspectratio>square</pixelaspectratio>
                      </samplecharacteristics>
                      <duration>19030</duration>
                    </video>
                    <audio>
                      <channelcount>2</channelcount>
                      <samplecharacteristics>
                        <samplerate>48000</samplerate>
                      </samplecharacteristics>
                      <layout>stereo</layout>
                      <audiochannel>
                        <sourcechannel>1</sourcechannel>
                      </audiochannel>
                    </audio>
                  </media>
                  <timecode>
                    <frame>1661778</frame>
                    <displayformat>DF</displayformat>
                  </timecode>
                  <pathurl>file:///Volumes/TA_VR_M2/Northern_Territory/Katherine/Day%201%20VRSE%20Cave%20Art/Take%201/Cam_4_Take_1_Day_1_Cave_Art_VRSE_Cam_GOPR0115.MP4</pathurl>
                </file>
                <sourcetrack>
                  <mediatype>audio</mediatype>
                  <trackindex>1</trackindex>
                </sourcetrack>
                <link>
                  <mediatype>video</mediatype>
                  <trackindex>3</trackindex>
                  <clipindex>1</clipindex>
                  <groupindex>1</groupindex>
                  <linkclipref>B1944234-556B-45E4-A253-E44BB8C0BF0B</linkclipref>
                </link>
                <link>
                  <mediatype>audio</mediatype>
                  <trackindex>5</trackindex>
                  <clipindex>1</clipindex>
                  <groupindex>1</groupindex>
                  <linkclipref>4CA32118-5D5D-47A0-8B5B-899EB73EEBF2</linkclipref>
                </link>
                <link>
                  <mediatype>audio</mediatype>
                  <trackindex>6</trackindex>
                  <clipindex>1</clipindex>
                  <groupindex>1</groupindex>
                  <linkclipref>BF23B2C8-6549-4C3B-9228-0ED6427F9ED8</linkclipref>
                </link>
              </clipitem>
              <enabled>TRUE</enabled>
              <locked>FALSE</locked>
            </track>
            <track TL.SQTrackExpanded="0" currentExplodedTrackIndex="1" premiereTrackType="Stereo" totalExplodedTrackCount="2">
              <clipitem id="BF23B2C8-6549-4C3B-9228-0ED6427F9ED8" premiereChannelType="stereo">
                <name>Cam_4_Take_1_Day_1_Cave_Art_VRSE_Cam_GOPR0115.MP4</name>
                <duration>19030</duration>
                <in>0</in>
                <out>19030</out>
                <start>0</start>
                <end>19030</end>
                <masterclipid>2F4E284F-75F8-43F4-995A-3EAA1B14E16A</masterclipid>
                <file id="CD2CB6DF-030C-401E-90E6-58940DB6CC52">
                  <name>Cam_4_Take_1_Day_1_Cave_Art_VRSE_Cam_GOPR0115.MP4</name>
                  <rate>
                    <ntsc>TRUE</ntsc>
                    <timebase>60</timebase>
                  </rate>
                  <duration>19030</duration>
                  <media>
                    <video>
                      <samplecharacteristics>
                        <width>2704</width>
                        <height>1520</height>
                        <anamorphic>FALSE</anamorphic>
                        <pixelaspectratio>square</pixelaspectratio>
                      </samplecharacteristics>
                      <duration>19030</duration>
                    </video>
                    <audio>
                      <channelcount>2</channelcount>
                      <samplecharacteristics>
                        <samplerate>48000</samplerate>
                      </samplecharacteristics>
                      <layout>stereo</layout>
                      <audiochannel>
                        <sourcechannel>1</sourcechannel>
                      </audiochannel>
                    </audio>
                  </media>
                  <timecode>
                    <frame>1661778</frame>
                    <displayformat>DF</displayformat>
                  </timecode>
                  <pathurl>file:///Volumes/TA_VR_M2/Northern_Territory/Katherine/Day%201%20VRSE%20Cave%20Art/Take%201/Cam_4_Take_1_Day_1_Cave_Art_VRSE_Cam_GOPR0115.MP4</pathurl>
                </file>
                <sourcetrack>
                  <mediatype>audio</mediatype>
                  <trackindex>2</trackindex>
                </sourcetrack>
                <link>
                  <mediatype>video</mediatype>
                  <trackindex>3</trackindex>
                  <clipindex>1</clipindex>
                  <groupindex>1</groupindex>
                  <linkclipref>B1944234-556B-45E4-A253-E44BB8C0BF0B</linkclipref>
                </link>
                <link>
                  <mediatype>audio</mediatype>
                  <trackindex>5</trackindex>
                  <clipindex>1</clipindex>
                  <groupindex>1</groupindex>
                  <linkclipref>4CA32118-5D5D-47A0-8B5B-899EB73EEBF2</linkclipref>
                </link>
                <link>
                  <mediatype>audio</mediatype>
                  <trackindex>6</trackindex>
                  <clipindex>1</clipindex>
                  <groupindex>1</groupindex>
                  <linkclipref>BF23B2C8-6549-4C3B-9228-0ED6427F9ED8</linkclipref>
                </link>
              </clipitem>
              <enabled>TRUE</enabled>
              <locked>FALSE</locked>
            </track>
            <track TL.SQTrackExpanded="0" currentExplodedTrackIndex="0" premiereTrackType="Stereo" totalExplodedTrackCount="2">
              <clipitem id="B2BC1798-EC7C-4ED2-A80D-F6D9A002EE87" premiereChannelType="stereo">
                <name>Cam_5_Take_1_Day_1_Cave_Art_VRSE_Cam_GOPR9602.MP4</name>
                <duration>19130</duration>
                <in>0</in>
                <out>19130</out>
                <start>35</start>
                <end>19165</end>
                <masterclipid>2A040FFB-601B-4B98-A8D6-7DAE3E56CBC8</masterclipid>
                <file id="DF548BA4-3B93-4EFF-B81E-7C2E065C36F2">
                  <name>Cam_5_Take_1_Day_1_Cave_Art_VRSE_Cam_GOPR9602.MP4</name>
                  <rate>
                    <ntsc>TRUE</ntsc>
                    <timebase>60</timebase>
                  </rate>
                  <duration>19130</duration>
                  <media>
                    <video>
                      <samplecharacteristics>
                        <width>2704</width>
                        <height>1520</height>
                        <anamorphic>FALSE</anamorphic>
                        <pixelaspectratio>square</pixelaspectratio>
                      </samplecharacteristics>
                      <duration>19130</duration>
                    </video>
                    <audio>
                      <channelcount>2</channelcount>
                      <samplecharacteristics>
                        <samplerate>48000</samplerate>
                      </samplecharacteristics>
                      <layout>stereo</layout>
                      <audiochannel>
                        <sourcechannel>1</sourcechannel>
                      </audiochannel>
                    </audio>
                  </media>
                  <timecode>
                    <frame>4956369</frame>
                    <displayformat>DF</displayformat>
                  </timecode>
                  <pathurl>file:///Volumes/TA_VR_M2/Northern_Territory/Katherine/Day%201%20VRSE%20Cave%20Art/Take%201/Cam_5_Take_1_Day_1_Cave_Art_VRSE_Cam_GOPR9602.MP4</pathurl>
                </file>
                <sourcetrack>
                  <mediatype>audio</mediatype>
                  <trackindex>1</trackindex>
                </sourcetrack>
                <link>
                  <mediatype>video</mediatype>
                  <trackindex>4</trackindex>
                  <clipindex>1</clipindex>
                  <groupindex>1</groupindex>
                  <linkclipref>ABE511E1-97AA-47EF-BF8B-6B9FCA485ACD</linkclipref>
                </link>
                <link>
                  <mediatype>audio</mediatype>
                  <trackindex>7</trackindex>
                  <clipindex>1</clipindex>
                  <groupindex>1</groupindex>
                  <linkclipref>B2BC1798-EC7C-4ED2-A80D-F6D9A002EE87</linkclipref>
                </link>
                <link>
                  <mediatype>audio</mediatype>
                  <trackindex>8</trackindex>
                  <clipindex>1</clipindex>
                  <groupindex>1</groupindex>
                  <linkclipref>C5002E95-F6AA-4D79-BE61-7BBB9D8AE175</linkclipref>
                </link>
              </clipitem>
              <enabled>TRUE</enabled>
              <locked>FALSE</locked>
            </track>
            <track TL.SQTrackExpanded="0" currentExplodedTrackIndex="1" premiereTrackType="Stereo" totalExplodedTrackCount="2">
              <clipitem id="C5002E95-F6AA-4D79-BE61-7BBB9D8AE175" premiereChannelType="stereo">
                <name>Cam_5_Take_1_Day_1_Cave_Art_VRSE_Cam_GOPR9602.MP4</name>
                <duration>19130</duration>
                <in>0</in>
                <out>19130</out>
                <start>35</start>
                <end>19165</end>
                <masterclipid>2A040FFB-601B-4B98-A8D6-7DAE3E56CBC8</masterclipid>
                <file id="DF548BA4-3B93-4EFF-B81E-7C2E065C36F2">
                  <name>Cam_5_Take_1_Day_1_Cave_Art_VRSE_Cam_GOPR9602.MP4</name>
                  <rate>
                    <ntsc>TRUE</ntsc>
                    <timebase>60</timebase>
                  </rate>
                  <duration>19130</duration>
                  <media>
                    <video>
                      <samplecharacteristics>
                        <width>2704</width>
                        <height>1520</height>
                        <anamorphic>FALSE</anamorphic>
                        <pixelaspectratio>square</pixelaspectratio>
                      </samplecharacteristics>
                      <duration>19130</duration>
                    </video>
                    <audio>
                      <channelcount>2</channelcount>
                      <samplecharacteristics>
                        <samplerate>48000</samplerate>
                      </samplecharacteristics>
                      <layout>stereo</layout>
                      <audiochannel>
                        <sourcechannel>1</sourcechannel>
                      </audiochannel>
                    </audio>
                  </media>
                  <timecode>
                    <frame>4956369</frame>
                    <displayformat>DF</displayformat>
                  </timecode>
                  <pathurl>file:///Volumes/TA_VR_M2/Northern_Territory/Katherine/Day%201%20VRSE%20Cave%20Art/Take%201/Cam_5_Take_1_Day_1_Cave_Art_VRSE_Cam_GOPR9602.MP4</pathurl>
                </file>
                <sourcetrack>
                  <mediatype>audio</mediatype>
                  <trackindex>2</trackindex>
                </sourcetrack>
                <link>
                  <mediatype>video</mediatype>
                  <trackindex>4</trackindex>
                  <clipindex>1</clipindex>
                  <groupindex>1</groupindex>
                  <linkclipref>ABE511E1-97AA-47EF-BF8B-6B9FCA485ACD</linkclipref>
                </link>
                <link>
                  <mediatype>audio</mediatype>
                  <trackindex>7</trackindex>
                  <clipindex>1</clipindex>
                  <groupindex>1</groupindex>
                  <linkclipref>B2BC1798-EC7C-4ED2-A80D-F6D9A002EE87</linkclipref>
                </link>
                <link>
                  <mediatype>audio</mediatype>
                  <trackindex>8</trackindex>
                  <clipindex>1</clipindex>
                  <groupindex>1</groupindex>
                  <linkclipref>C5002E95-F6AA-4D79-BE61-7BBB9D8AE175</linkclipref>
                </link>
              </clipitem>
              <enabled>TRUE</enabled>
              <locked>FALSE</locked>
            </track>
            <track TL.SQTrackExpanded="0" currentExplodedTrackIndex="0" premiereTrackType="Stereo" totalExplodedTrackCount="2">
              <clipitem id="DE912FD2-8496-4784-96DF-0C5A9D0855C0" premiereChannelType="stereo">
                <name>Cam_6_Take_1_Day_1_Cave_Art_VRSE_Cam_GOPR9987.MP4</name>
                <duration>19163</duration>
                <in>0</in>
                <out>19163</out>
                <start>93</start>
                <end>19256</end>
                <masterclipid>EC71AE1F-CEEB-4BEE-9AB8-59CD903809CB</masterclipid>
                <file id="E3866DEB-189E-43C4-8339-0EA16D1BE592">
                  <name>Cam_6_Take_1_Day_1_Cave_Art_VRSE_Cam_GOPR9987.MP4</name>
                  <rate>
                    <ntsc>TRUE</ntsc>
                    <timebase>60</timebase>
                  </rate>
                  <duration>19163</duration>
                  <media>
                    <video>
                      <samplecharacteristics>
                        <width>2704</width>
                        <height>1520</height>
                        <anamorphic>FALSE</anamorphic>
                        <pixelaspectratio>square</pixelaspectratio>
                      </samplecharacteristics>
                      <duration>19163</duration>
                    </video>
                    <audio>
                      <channelcount>2</channelcount>
                      <samplecharacteristics>
                        <samplerate>48000</samplerate>
                      </samplecharacteristics>
                      <layout>stereo</layout>
                      <audiochannel>
                        <sourcechannel>1</sourcechannel>
                      </audiochannel>
                    </audio>
                  </media>
                  <timecode>
                    <frame>2027534</frame>
                    <displayformat>DF</displayformat>
                  </timecode>
                  <pathurl>file:///Volumes/TA_VR_M2/Northern_Territory/Katherine/Day%201%20VRSE%20Cave%20Art/Take%201/Cam_6_Take_1_Day_1_Cave_Art_VRSE_Cam_GOPR9987.MP4</pathurl>
                </file>
                <sourcetrack>
                  <mediatype>audio</mediatype>
                  <trackindex>1</trackindex>
                </sourcetrack>
                <link>
                  <mediatype>video</mediatype>
                  <trackindex>5</trackindex>
                  <clipindex>1</clipindex>
                  <groupindex>1</groupindex>
                  <linkclipref>D0E18982-7A76-4D04-8A5A-76340A086CFF</linkclipref>
                </link>
                <link>
                  <mediatype>audio</mediatype>
                  <trackindex>9</trackindex>
                  <clipindex>1</clipindex>
                  <groupindex>1</groupindex>
                  <linkclipref>DE912FD2-8496-4784-96DF-0C5A9D0855C0</linkclipref>
                </link>
                <link>
                  <mediatype>audio</mediatype>
                  <trackindex>10</trackindex>
                  <clipindex>1</clipindex>
                  <groupindex>1</groupindex>
                  <linkclipref>CE72A896-160B-4887-9E32-D2864E1A0D7D</linkclipref>
                </link>
              </clipitem>
              <enabled>TRUE</enabled>
              <locked>FALSE</locked>
            </track>
            <track TL.SQTrackExpanded="0" currentExplodedTrackIndex="1" premiereTrackType="Stereo" totalExplodedTrackCount="2">
              <clipitem id="CE72A896-160B-4887-9E32-D2864E1A0D7D" premiereChannelType="stereo">
                <name>Cam_6_Take_1_Day_1_Cave_Art_VRSE_Cam_GOPR9987.MP4</name>
                <duration>19163</duration>
                <in>0</in>
                <out>19163</out>
                <start>93</start>
                <end>19256</end>
                <masterclipid>EC71AE1F-CEEB-4BEE-9AB8-59CD903809CB</masterclipid>
                <file id="E3866DEB-189E-43C4-8339-0EA16D1BE592">
                  <name>Cam_6_Take_1_Day_1_Cave_Art_VRSE_Cam_GOPR9987.MP4</name>
                  <rate>
                    <ntsc>TRUE</ntsc>
                    <timebase>60</timebase>
                  </rate>
                  <duration>19163</duration>
                  <media>
                    <video>
                      <samplecharacteristics>
                        <width>2704</width>
                        <height>1520</height>
                        <anamorphic>FALSE</anamorphic>
                        <pixelaspectratio>square</pixelaspectratio>
                      </samplecharacteristics>
                      <duration>19163</duration>
                    </video>
                    <audio>
                      <channelcount>2</channelcount>
                      <samplecharacteristics>
                        <samplerate>48000</samplerate>
                      </samplecharacteristics>
                      <layout>stereo</layout>
                      <audiochannel>
                        <sourcechannel>1</sourcechannel>
                      </audiochannel>
                    </audio>
                  </media>
                  <timecode>
                    <frame>2027534</frame>
                    <displayformat>DF</displayformat>
                  </timecode>
                  <pathurl>file:///Volumes/TA_VR_M2/Northern_Territory/Katherine/Day%201%20VRSE%20Cave%20Art/Take%201/Cam_6_Take_1_Day_1_Cave_Art_VRSE_Cam_GOPR9987.MP4</pathurl>
                </file>
                <sourcetrack>
                  <mediatype>audio</mediatype>
                  <trackindex>2</trackindex>
                </sourcetrack>
                <link>
                  <mediatype>video</mediatype>
                  <trackindex>5</trackindex>
                  <clipindex>1</clipindex>
                  <groupindex>1</groupindex>
                  <linkclipref>D0E18982-7A76-4D04-8A5A-76340A086CFF</linkclipref>
                </link>
                <link>
                  <mediatype>audio</mediatype>
                  <trackindex>9</trackindex>
                  <clipindex>1</clipindex>
                  <groupindex>1</groupindex>
                  <linkclipref>DE912FD2-8496-4784-96DF-0C5A9D0855C0</linkclipref>
                </link>
                <link>
                  <mediatype>audio</mediatype>
                  <trackindex>10</trackindex>
                  <clipindex>1</clipindex>
                  <groupindex>1</groupindex>
                  <linkclipref>CE72A896-160B-4887-9E32-D2864E1A0D7D</linkclipref>
                </link>
              </clipitem>
              <enabled>TRUE</enabled>
              <locked>FALSE</locked>
            </track>
            <track TL.SQTrackExpanded="0" currentExplodedTrackIndex="0" premiereTrackType="Stereo" totalExplodedTrackCount="2">
              <clipitem id="21566F9F-899E-43BC-A6A8-AC870688688A" premiereChannelType="stereo">
                <name>Cam_7_Take_1_Day_1_Cave_Art_VRSE_Cam_GOPR6371.MP4</name>
                <duration>19186</duration>
                <in>0</in>
                <out>19186</out>
                <start>138</start>
                <end>19324</end>
                <masterclipid>31481EA0-F81D-419A-ADFB-34638993D06B</masterclipid>
                <file id="5197FFFC-AAAA-415E-9F26-C99569058889">
                  <name>Cam_7_Take_1_Day_1_Cave_Art_VRSE_Cam_GOPR6371.MP4</name>
                  <rate>
                    <ntsc>TRUE</ntsc>
                    <timebase>60</timebase>
                  </rate>
                  <duration>19186</duration>
                  <media>
                    <video>
                      <samplecharacteristics>
                        <width>2704</width>
                        <height>1520</height>
                        <anamorphic>FALSE</anamorphic>
                        <pixelaspectratio>square</pixelaspectratio>
                      </samplecharacteristics>
                      <duration>19186</duration>
                    </video>
                    <audio>
                      <channelcount>2</channelcount>
                      <samplecharacteristics>
                        <samplerate>48000</samplerate>
                      </samplecharacteristics>
                      <layout>stereo</layout>
                      <audiochannel>
                        <sourcechannel>1</sourcechannel>
                      </audiochannel>
                    </audio>
                  </media>
                  <timecode>
                    <frame>3705250</frame>
                    <displayformat>DF</displayformat>
                  </timecode>
                  <pathurl>file:///Volumes/TA_VR_M2/Northern_Territory/Katherine/Day%201%20VRSE%20Cave%20Art/Take%201/Cam_7_Take_1_Day_1_Cave_Art_VRSE_Cam_GOPR6371.MP4</pathurl>
                </file>
                <sourcetrack>
                  <mediatype>audio</mediatype>
                  <trackindex>1</trackindex>
                </sourcetrack>
                <link>
                  <mediatype>video</mediatype>
                  <trackindex>6</trackindex>
                  <clipindex>1</clipindex>
                  <groupindex>1</groupindex>
                  <linkclipref>D56F4B58-824E-41D0-9253-958C6829CC85</linkclipref>
                </link>
                <link>
                  <mediatype>audio</mediatype>
                  <trackindex>11</trackindex>
                  <clipindex>1</clipindex>
                  <groupindex>1</groupindex>
                  <linkclipref>21566F9F-899E-43BC-A6A8-AC870688688A</linkclipref>
                </link>
                <link>
                  <mediatype>audio</mediatype>
                  <trackindex>12</trackindex>
                  <clipindex>1</clipindex>
                  <groupindex>1</groupindex>
                  <linkclipref>5FFA690B-D50E-4C1A-8D46-ACA5224F0F40</linkclipref>
                </link>
              </clipitem>
              <enabled>TRUE</enabled>
              <locked>FALSE</locked>
            </track>
            <track TL.SQTrackExpanded="0" currentExplodedTrackIndex="1" premiereTrackType="Stereo" totalExplodedTrackCount="2">
              <clipitem id="5FFA690B-D50E-4C1A-8D46-ACA5224F0F40" premiereChannelType="stereo">
                <name>Cam_7_Take_1_Day_1_Cave_Art_VRSE_Cam_GOPR6371.MP4</name>
                <duration>19186</duration>
                <in>0</in>
                <out>19186</out>
                <start>138</start>
                <end>19324</end>
                <masterclipid>31481EA0-F81D-419A-ADFB-34638993D06B</masterclipid>
                <file id="5197FFFC-AAAA-415E-9F26-C99569058889">
                  <name>Cam_7_Take_1_Day_1_Cave_Art_VRSE_Cam_GOPR6371.MP4</name>
                  <rate>
                    <ntsc>TRUE</ntsc>
                    <timebase>60</timebase>
                  </rate>
                  <duration>19186</duration>
                  <media>
                    <video>
                      <samplecharacteristics>
                        <width>2704</width>
                        <height>1520</height>
                        <anamorphic>FALSE</anamorphic>
                        <pixelaspectratio>square</pixelaspectratio>
                      </samplecharacteristics>
                      <duration>19186</duration>
                    </video>
                    <audio>
                      <channelcount>2</channelcount>
                      <samplecharacteristics>
                        <samplerate>48000</samplerate>
                      </samplecharacteristics>
                      <layout>stereo</layout>
                      <audiochannel>
                        <sourcechannel>1</sourcechannel>
                      </audiochannel>
                    </audio>
                  </media>
                  <timecode>
                    <frame>3705250</frame>
                    <displayformat>DF</displayformat>
                  </timecode>
                  <pathurl>file:///Volumes/TA_VR_M2/Northern_Territory/Katherine/Day%201%20VRSE%20Cave%20Art/Take%201/Cam_7_Take_1_Day_1_Cave_Art_VRSE_Cam_GOPR6371.MP4</pathurl>
                </file>
                <sourcetrack>
                  <mediatype>audio</mediatype>
                  <trackindex>2</trackindex>
                </sourcetrack>
                <link>
                  <mediatype>video</mediatype>
                  <trackindex>6</trackindex>
                  <clipindex>1</clipindex>
                  <groupindex>1</groupindex>
                  <linkclipref>D56F4B58-824E-41D0-9253-958C6829CC85</linkclipref>
                </link>
                <link>
                  <mediatype>audio</mediatype>
                  <trackindex>11</trackindex>
                  <clipindex>1</clipindex>
                  <groupindex>1</groupindex>
                  <linkclipref>21566F9F-899E-43BC-A6A8-AC870688688A</linkclipref>
                </link>
                <link>
                  <mediatype>audio</mediatype>
                  <trackindex>12</trackindex>
                  <clipindex>1</clipindex>
                  <groupindex>1</groupindex>
                  <linkclipref>5FFA690B-D50E-4C1A-8D46-ACA5224F0F40</linkclipref>
                </link>
              </clipitem>
              <enabled>TRUE</enabled>
              <locked>FALSE</locked>
            </track>
            <track TL.SQTrackExpanded="0" currentExplodedTrackIndex="0" premiereTrackType="Stereo" totalExplodedTrackCount="2">
              <clipitem id="00056FFB-A9AA-434B-9067-035FA4C04DBF" premiereChannelType="stereo">
                <name>Cam_8_Take_1_Day_1_Cave_Art_VRSE_Cam_GOPR9999.MP4</name>
                <duration>19478</duration>
                <in>0</in>
                <out>19478</out>
                <start>198</start>
                <end>19676</end>
                <masterclipid>A4703F2D-2A22-42C5-8F3B-4164DFBB7932</masterclipid>
                <file id="E2BDC153-DF8B-416B-A8E2-A9A738227853">
                  <name>Cam_8_Take_1_Day_1_Cave_Art_VRSE_Cam_GOPR9999.MP4</name>
                  <rate>
                    <ntsc>TRUE</ntsc>
                    <timebase>60</timebase>
                  </rate>
                  <duration>19478</duration>
                  <media>
                    <video>
                      <samplecharacteristics>
                        <width>2704</width>
                        <height>1520</height>
                        <anamorphic>FALSE</anamorphic>
                        <pixelaspectratio>square</pixelaspectratio>
                      </samplecharacteristics>
                      <duration>19478</duration>
                    </video>
                    <audio>
                      <channelcount>2</channelcount>
                      <samplecharacteristics>
                        <samplerate>48000</samplerate>
                      </samplecharacteristics>
                      <layout>stereo</layout>
                      <audiochannel>
                        <sourcechannel>1</sourcechannel>
                      </audiochannel>
                    </audio>
                  </media>
                  <timecode>
                    <frame>2280849</frame>
                    <displayformat>DF</displayformat>
                  </timecode>
                  <pathurl>file:///Volumes/TA_VR_M2/Northern_Territory/Katherine/Day%201%20VRSE%20Cave%20Art/Take%201/Cam_8_Take_1_Day_1_Cave_Art_VRSE_Cam_GOPR9999.MP4</pathurl>
                </file>
                <sourcetrack>
                  <mediatype>audio</mediatype>
                  <trackindex>1</trackindex>
                </sourcetrack>
                <link>
                  <mediatype>video</mediatype>
                  <trackindex>7</trackindex>
                  <clipindex>1</clipindex>
                  <groupindex>1</groupindex>
                  <linkclipref>C09D3961-190E-4121-A179-3EA4AC00AAF8</linkclipref>
                </link>
                <link>
                  <mediatype>audio</mediatype>
                  <trackindex>13</trackindex>
                  <clipindex>1</clipindex>
                  <groupindex>1</groupindex>
                  <linkclipref>00056FFB-A9AA-434B-9067-035FA4C04DBF</linkclipref>
                </link>
                <link>
                  <mediatype>audio</mediatype>
                  <trackindex>14</trackindex>
                  <clipindex>1</clipindex>
                  <groupindex>1</groupindex>
                  <linkclipref>4CEC8669-B25C-426F-9106-CA50C1A77D34</linkclipref>
                </link>
              </clipitem>
              <enabled>TRUE</enabled>
              <locked>FALSE</locked>
            </track>
            <track TL.SQTrackExpanded="0" currentExplodedTrackIndex="1" premiereTrackType="Stereo" totalExplodedTrackCount="2">
              <clipitem id="4CEC8669-B25C-426F-9106-CA50C1A77D34" premiereChannelType="stereo">
                <name>Cam_8_Take_1_Day_1_Cave_Art_VRSE_Cam_GOPR9999.MP4</name>
                <duration>19478</duration>
                <in>0</in>
                <out>19478</out>
                <start>198</start>
                <end>19676</end>
                <masterclipid>A4703F2D-2A22-42C5-8F3B-4164DFBB7932</masterclipid>
                <file id="E2BDC153-DF8B-416B-A8E2-A9A738227853">
                  <name>Cam_8_Take_1_Day_1_Cave_Art_VRSE_Cam_GOPR9999.MP4</name>
                  <rate>
                    <ntsc>TRUE</ntsc>
                    <timebase>60</timebase>
                  </rate>
                  <duration>19478</duration>
                  <media>
                    <video>
                      <samplecharacteristics>
                        <width>2704</width>
                        <height>1520</height>
                        <anamorphic>FALSE</anamorphic>
                        <pixelaspectratio>square</pixelaspectratio>
                      </samplecharacteristics>
                      <duration>19478</duration>
                    </video>
                    <audio>
                      <channelcount>2</channelcount>
                      <samplecharacteristics>
                        <samplerate>48000</samplerate>
                      </samplecharacteristics>
                      <layout>stereo</layout>
                      <audiochannel>
                        <sourcechannel>1</sourcechannel>
                      </audiochannel>
                    </audio>
                  </media>
                  <timecode>
                    <frame>2280849</frame>
                    <displayformat>DF</displayformat>
                  </timecode>
                  <pathurl>file:///Volumes/TA_VR_M2/Northern_Territory/Katherine/Day%201%20VRSE%20Cave%20Art/Take%201/Cam_8_Take_1_Day_1_Cave_Art_VRSE_Cam_GOPR9999.MP4</pathurl>
                </file>
                <sourcetrack>
                  <mediatype>audio</mediatype>
                  <trackindex>2</trackindex>
                </sourcetrack>
                <link>
                  <mediatype>video</mediatype>
                  <trackindex>7</trackindex>
                  <clipindex>1</clipindex>
                  <groupindex>1</groupindex>
                  <linkclipref>C09D3961-190E-4121-A179-3EA4AC00AAF8</linkclipref>
                </link>
                <link>
                  <mediatype>audio</mediatype>
                  <trackindex>13</trackindex>
                  <clipindex>1</clipindex>
                  <groupindex>1</groupindex>
                  <linkclipref>00056FFB-A9AA-434B-9067-035FA4C04DBF</linkclipref>
                </link>
                <link>
                  <mediatype>audio</mediatype>
                  <trackindex>14</trackindex>
                  <clipindex>1</clipindex>
                  <groupindex>1</groupindex>
                  <linkclipref>4CEC8669-B25C-426F-9106-CA50C1A77D34</linkclipref>
                </link>
              </clipitem>
              <enabled>TRUE</enabled>
              <locked>FALSE</locked>
            </track>
          </audio>
        </media>
        <uuid>64C05F23-E939-4D33-BC60-FF247CFFA3BF</uuid>
      </sequence>
    </children>
  </project>

  <importoptions>
    <createnewproject>FALSE</createnewproject>
    <targetprojectname>Synced Project</targetprojectname>
    <defsequencepresetname>useFirstClipSettings</defsequencepresetname>
    <displaynonfatalerrors>TRUE</displaynonfatalerrors>
    <filterreconnectmediafiles>TRUE</filterreconnectmediafiles>
    <filterincludemarkers>TRUE</filterincludemarkers>
    <filterincludeeffects>TRUE</filterincludeeffects>
    <filterincludesequencesettings>FALSE</filterincludesequencesettings>
  </importoptions>

</xmeml>
